0
SECTION
2
HEADER
9
$INSUNITS
70
4
9
$ACADVER
1
AC1014
9
$HANDSEED
5
FFFF
0
ENDSEC
0
SECTION
2
TABLES
0
TABLE
2
VPORT
5
8
100
AcDbSymbolTable
0
ENDTAB
0
TABLE
2
LTYPE
5
5
100
AcDbSymbolTable
0
LTYPE
5
14
100
AcDbSymbolTableRecord
100
AcDbLinetypeTableRecord
2
BYBLOCK
70
0
0
LTYPE
5
15
100
AcDbSymbolTableRecord
100
AcDbLinetypeTableRecord
2
BYLAYER
70
0
0
ENDTAB
0
TABLE
2
LAYER
5
2
100
AcDbSymbolTable
70
2
0
LAYER
5
50
100
AcDbSymbolTableRecord
100
AcDbLayerTableRecord
2
0
70
0
6
CONTINUOUS
0
ENDTAB
0
TABLE
2
STYLE
5
3
100
AcDbSymbolTable
70
1
0
STYLE
5
11
100
AcDbSymbolTableRecord
100
AcDbTextStyleTableRecord
2
STANDARD
70
0
0
ENDTAB
0
TABLE
2
VIEW
5
6
100
AcDbSymbolTable
70
0
0
ENDTAB
0
TABLE
2
UCS
5
7
100
AcDbSymbolTable
70
0
0
ENDTAB
0
TABLE
2
APPID
5
9
100
AcDbSymbolTable
70
2
0
APPID
5
12
100
AcDbSymbolTableRecord
100
AcDbRegAppTableRecord
2
ACAD
70
0
0
ENDTAB
0
TABLE
2
DIMSTYLE
5
A
100
AcDbSymbolTable
70
1
0
ENDTAB
0
TABLE
2
BLOCK_RECORD
5
1
100
AcDbSymbolTable
70
1
0
BLOCK_RECORD
5
1F
100
AcDbSymbolTableRecord
100
AcDbBlockTableRecord
2
*MODEL_SPACE
0
BLOCK_RECORD
5
1B
100
AcDbSymbolTableRecord
100
AcDbBlockTableRecord
2
*PAPER_SPACE
0
ENDTAB
0
ENDSEC
0
SECTION
2
BLOCKS
0
BLOCK
5
20
100
AcDbEntity
100
AcDbBlockBegin
2
*MODEL_SPACE
0
ENDBLK
5
21
100
AcDbEntity
100
AcDbBlockEnd
0
BLOCK
5
1C
100
AcDbEntity
100
AcDbBlockBegin
2
*PAPER_SPACE
0
ENDBLK
5
1D
100
AcDbEntity
100
AcDbBlockEnd
0
ENDSEC
0
SECTION
2
ENTITIES
0
LWPOLYLINE
5
100
100
AcDbEntity
8
0
100
AcDbPolyline
90
60
70
1
43
0.0
10
148
20
8
10
148
20
4.9999999999999929
10
127.99999999999999
20
5
10
127.99999999999999
20
8.0000000000000071
10
107.99999999999999
20
8.0000000000000071
10
107.99999999999999
20
5
10
87.999999999999986
20
5
10
87.999999999999986
20
8.0000000000000071
10
67.999999999999986
20
8.0000000000000071
10
67.999999999999986
20
5
10
47.999999999999986
20
5
10
47.999999999999986
20
8.0000000000000071
10
27.999999999999989
20
8.0000000000000071
10
27.999999999999989
20
5
10
7.9999999999999893
20
5
10
7.9999999999999893
20
28
10
10.999999999999996
20
28
10
10.999999999999996
20
48
10
7.9999999999999893
20
48
10
7.9999999999999893
20
68
10
10.999999999999996
20
68
10
10.999999999999996
20
88
10
7.9999999999999893
20
88
10
7.9999999999999893
20
108
10
10.999999999999996
20
108
10
10.999999999999996
20
128
10
7.9999999999999893
20
128
10
7.9999999999999893
20
148
10
10.999999999999996
20
148
10
10.999999999999996
20
168
10
7.9999999999999893
20
168
10
7.9999999999999893
20
188
10
10.999999999999996
20
188
10
10.999999999999996
20
208
10
7.9999999999999893
20
208
10
7.9999999999999893
20
230
10
27.999999999999989
20
230
10
27.999999999999989
20
227
10
47.999999999999986
20
227
10
47.999999999999986
20
230
10
67.999999999999986
20
230
10
67.999999999999986
20
227
10
87.999999999999986
20
227
10
87.999999999999986
20
230
10
107.99999999999999
20
230
10
107.99999999999999
20
227
10
127.99999999999999
20
227
10
127.99999999999999
20
230
10
148
20
230
10
148
20
227
10
165
20
227
10
165
20
230
10
350
20
230
10
350
20
217.5
10
353
20
217.5
10
353
20
17.499999999999986
10
350
20
17.499999999999986
10
350
20
4.999999925494194
10
165
20
4.999999925494194
10
165
20
8
0
LWPOLYLINE
5
101
100
AcDbEntity
8
0
100
AcDbPolyline
90
23
70
1
43
0.0
10
16.782518217220534
20
260.66252249882172
10
170.78251821722017
20
260.66252249882172
10
170.78251821722017
20
256.66252243921707
10
173.78252033318506
20
256.66252243921707
10
173.78252033318506
20
244.66252255842642
10
170.78251821722017
20
244.66252255842642
10
170.78251821722017
20
240.66252249882177
10
153.78251821722023
20
240.66252249882177
10
153.78251821722023
20
237.66252249882174
10
133.78251821722029
20
237.66252249882174
10
133.78251821722029
20
240.66252249882177
10
113.78251821722033
20
240.66252249882177
10
113.78251821722033
20
237.66252249882174
10
93.782518217220371
20
237.66252249882174
10
93.782518217220371
20
240.66252249882177
10
73.782518217220414
20
240.66252249882177
10
73.782518217220414
20
237.66252249882174
10
53.782518217220456
20
237.66252249882174
10
53.782518217220456
20
240.66252249882177
10
33.782518217220499
20
240.66252249882177
10
33.782518217220499
20
237.66252249882174
10
16.782518217220531
20
237.66252249882174
10
16.782518217220531
20
240.66252249882172
42
-0.99999999999999989
0
LWPOLYLINE
5
102
100
AcDbEntity
8
0
100
AcDbPolyline
90
4
70
1
43
0.0
10
151.78252005006306
20
244.66252226040319
10
154.78252005006306
20
244.66252226040319
10
154.78252005006306
20
256.66252273724029
10
151.78252005006306
20
256.66252273724029
0
CIRCLE
5
103
100
AcDbEntity
8
0
100
AcDbCircle
10
164.72618609345349
20
250.66252249882172
30
0
40
1.0999999999999943
210
0
220
0
230
1
0
LWPOLYLINE
5
104
100
AcDbEntity
8
0
100
AcDbPolyline
90
4
70
1
43
0.0
10
326.78252005006306
20
256.66252273724029
10
326.78252005006306
20
244.66252226040319
10
329.78252005006306
20
244.66252226040319
10
329.78252005006306
20
256.66252273724029
0
LWPOLYLINE
5
105
100
AcDbEntity
8
0
100
AcDbPolyline
90
23
70
1
43
0.0
10
348.78252033318506
20
256.66252243921707
10
348.78252033318506
20
244.66252255842642
10
345.78251821722017
20
244.66252255842642
10
345.78251821722017
20
240.66252249882177
10
328.78251821722023
20
240.66252249882177
10
328.78251821722023
20
237.66252249882174
10
308.78251821722029
20
237.66252249882174
10
308.78251821722029
20
240.66252249882177
10
288.78251821722029
20
240.66252249882177
10
288.78251821722029
20
237.66252249882174
10
268.7825182172204
20
237.66252249882174
10
268.7825182172204
20
240.66252249882177
10
248.78251821722043
20
240.66252249882177
10
248.78251821722043
20
237.66252249882174
10
228.78251821722046
20
237.66252249882174
10
228.78251821722046
20
240.66252249882177
10
208.78251821722048
20
240.66252249882177
10
208.78251821722048
20
237.66252249882174
10
191.78251821722054
20
237.66252249882174
10
191.78251821722054
20
240.66252249882172
42
-0.99999999999999989
10
191.78251821722054
20
260.66252249882172
10
345.78251821722017
20
260.66252249882172
10
345.78251821722017
20
256.66252243921707
0
CIRCLE
5
106
100
AcDbEntity
8
0
100
AcDbCircle
10
339.72618609345346
20
250.66252249882172
30
0
40
1.0999999999999943
210
0
220
0
230
1
0
LINE
5
107
100
AcDbEntity
8
0
100
AcDbLine
10
195.46700000000001
20
111.199
30
0
11
195.46700000000001
21
66.727000000000004
31
0
0
LINE
5
108
100
AcDbEntity
8
0
100
AcDbLine
10
175.666
20
88.393999999999991
30
0
11
175.666
21
43.993300000000005
31
0
0
LINE
5
109
100
AcDbEntity
8
0
100
AcDbLine
10
179.26600000000002
20
88.393999999999991
30
0
11
179.26600000000002
21
43.993300000000005
31
0
0
LINE
5
110
100
AcDbEntity
8
0
100
AcDbLine
10
190.06599999999997
20
88.393999999999991
30
0
11
190.06599999999997
21
43.993300000000005
31
0
0
LINE
5
111
100
AcDbEntity
8
0
100
AcDbLine
10
175.666
20
135.19900000000001
30
0
11
175.666
21
90.799999999999997
31
0
0
LINE
5
112
100
AcDbEntity
8
0
100
AcDbLine
10
170.39900000000003
20
111.199
30
0
11
170.39900000000003
21
66.727000000000004
31
0
0
LINE
5
113
100
AcDbEntity
8
0
100
AcDbLine
10
165
20
135.19900000000001
30
0
11
165
21
90.799999999999997
31
0
0
LINE
5
114
100
AcDbEntity
8
0
100
AcDbLine
10
179.26600000000002
20
135.19900000000001
30
0
11
179.26600000000002
21
90.799999999999997
31
0
0
LINE
5
115
100
AcDbEntity
8
0
100
AcDbLine
10
197.26599999999996
20
88.393999999999991
30
0
11
197.26599999999996
21
43.993300000000005
31
0
0
LINE
5
116
100
AcDbEntity
8
0
100
AcDbLine
10
190.06599999999997
20
135.19900000000001
30
0
11
190.06599999999997
21
90.799999999999997
31
0
0
LINE
5
117
100
AcDbEntity
8
0
100
AcDbLine
10
182.86599999999999
20
88.393999999999991
30
0
11
182.86599999999999
21
43.993300000000005
31
0
0
LINE
5
118
100
AcDbEntity
8
0
100
AcDbLine
10
177.46499999999997
20
111.199
30
0
11
177.46499999999997
21
66.727000000000004
31
0
0
LINE
5
119
100
AcDbEntity
8
0
100
AcDbLine
10
184.666
20
111.199
30
0
11
184.666
21
66.727000000000004
31
0
0
LINE
5
120
100
AcDbEntity
8
0
100
AcDbLine
10
186.46700000000004
20
135.19900000000001
30
0
11
186.46700000000004
21
90.799999999999997
31
0
0
LINE
5
121
100
AcDbEntity
8
0
100
AcDbLine
10
166.80000000000001
20
230
30
0
11
166.80000000000001
21
209.59900000000005
31
0
0
LINE
5
122
100
AcDbEntity
8
0
100
AcDbLine
10
177.46499999999997
20
230
30
0
11
177.46499999999997
21
209.59900000000005
31
0
0
LINE
5
123
100
AcDbEntity
8
0
100
AcDbLine
10
170.39900000000003
20
230
30
0
11
170.39900000000003
21
209.59900000000005
31
0
0
LINE
5
124
100
AcDbEntity
8
0
100
AcDbLine
10
173.86600000000001
20
230
30
0
11
173.86600000000001
21
209.59900000000005
31
0
0
LINE
5
125
100
AcDbEntity
8
0
100
AcDbLine
10
181.066
20
230
30
0
11
181.066
21
209.59900000000005
31
0
0
LINE
5
126
100
AcDbEntity
8
0
100
AcDbLine
10
195.46700000000001
20
230
30
0
11
195.46700000000001
21
209.59900000000005
31
0
0
LINE
5
127
100
AcDbEntity
8
0
100
AcDbLine
10
188.26599999999999
20
230
30
0
11
188.26599999999999
21
209.59900000000005
31
0
0
LINE
5
128
100
AcDbEntity
8
0
100
AcDbLine
10
166.80000000000001
20
111.199
30
0
11
166.80000000000001
21
66.727000000000004
31
0
0
LINE
5
129
100
AcDbEntity
8
0
100
AcDbLine
10
173.86600000000001
20
111.199
30
0
11
173.86600000000001
21
66.727000000000004
31
0
0
LINE
5
130
100
AcDbEntity
8
0
100
AcDbLine
10
186.46700000000004
20
88.393999999999991
30
0
11
186.46700000000004
21
43.993300000000005
31
0
0
LINE
5
131
100
AcDbEntity
8
0
100
AcDbLine
10
168.59899999999996
20
88.393999999999991
30
0
11
168.59899999999996
21
43.993300000000005
31
0
0
LINE
5
132
100
AcDbEntity
8
0
100
AcDbLine
10
177.46499999999997
20
17.594199999999994
30
0
11
177.46499999999997
21
4.999999925494194
31
0
0
LINE
5
133
100
AcDbEntity
8
0
100
AcDbLine
10
170.39900000000003
20
17.594199999999994
30
0
11
170.39900000000003
21
4.999999925494194
31
0
0
LINE
5
134
100
AcDbEntity
8
0
100
AcDbLine
10
184.666
20
17.594199999999994
30
0
11
184.666
21
4.999999925494194
31
0
0
LINE
5
135
100
AcDbEntity
8
0
100
AcDbLine
10
182.86599999999999
20
41.5944
30
0
11
182.86599999999999
21
4.999999925494194
31
0
0
LINE
5
136
100
AcDbEntity
8
0
100
AcDbLine
10
188.26599999999999
20
17.594199999999994
30
0
11
188.26599999999999
21
4.999999925494194
31
0
0
LINE
5
137
100
AcDbEntity
8
0
100
AcDbLine
10
191.86599999999999
20
17.594199999999994
30
0
11
191.86599999999999
21
4.999999925494194
31
0
0
LINE
5
138
100
AcDbEntity
8
0
100
AcDbLine
10
166.80000000000001
20
17.594199999999994
30
0
11
166.80000000000001
21
4.999999925494194
31
0
0
LINE
5
139
100
AcDbEntity
8
0
100
AcDbLine
10
195.46700000000001
20
17.594199999999994
30
0
11
195.46700000000001
21
4.999999925494194
31
0
0
LINE
5
140
100
AcDbEntity
8
0
100
AcDbLine
10
181.066
20
17.594199999999994
30
0
11
181.06600000000003
21
4.999999925494194
31
0
0
LINE
5
141
100
AcDbEntity
8
0
100
AcDbLine
10
181.066
20
111.199
30
0
11
181.066
21
66.727000000000004
31
0
0
LINE
5
142
100
AcDbEntity
8
0
100
AcDbLine
10
191.86599999999999
20
111.199
30
0
11
191.86599999999999
21
66.727000000000004
31
0
0
LINE
5
143
100
AcDbEntity
8
0
100
AcDbLine
10
165
20
88.393999999999991
30
0
11
165
21
43.993300000000005
31
0
0
LINE
5
144
100
AcDbEntity
8
0
100
AcDbLine
10
188.26599999999999
20
111.199
30
0
11
188.26599999999999
21
66.727000000000004
31
0
0
LINE
5
145
100
AcDbEntity
8
0
100
AcDbLine
10
172.06599999999995
20
88.393999999999991
30
0
11
172.06599999999995
21
43.993300000000005
31
0
0
LINE
5
146
100
AcDbEntity
8
0
100
AcDbLine
10
191.86599999999999
20
207.20000000000002
30
0
11
191.86599999999999
21
161.59900000000005
31
0
0
LINE
5
147
100
AcDbEntity
8
0
100
AcDbLine
10
184.666
20
207.20000000000002
30
0
11
184.666
21
161.59900000000005
31
0
0
LINE
5
148
100
AcDbEntity
8
0
100
AcDbLine
10
188.26599999999999
20
207.20000000000002
30
0
11
188.26599999999999
21
161.59900000000005
31
0
0
LINE
5
149
100
AcDbEntity
8
0
100
AcDbLine
10
191.86599999999999
20
230
30
0
11
191.86599999999999
21
209.59900000000005
31
0
0
LINE
5
150
100
AcDbEntity
8
0
100
AcDbLine
10
166.80000000000001
20
207.20000000000002
30
0
11
166.80000000000001
21
161.59900000000005
31
0
0
LINE
5
151
100
AcDbEntity
8
0
100
AcDbLine
10
168.59899999999996
20
230
30
0
11
168.59899999999996
21
185.59900000000005
31
0
0
LINE
5
152
100
AcDbEntity
8
0
100
AcDbLine
10
184.666
20
230
30
0
11
184.666
21
209.59900000000005
31
0
0
LINE
5
153
100
AcDbEntity
8
0
100
AcDbLine
10
190.06599999999997
20
230
30
0
11
190.06599999999997
21
185.59900000000005
31
0
0
LINE
5
154
100
AcDbEntity
8
0
100
AcDbLine
10
181.066
20
207.20000000000002
30
0
11
181.066
21
161.59900000000005
31
0
0
LINE
5
155
100
AcDbEntity
8
0
100
AcDbLine
10
177.46499999999997
20
207.20000000000002
30
0
11
177.46499999999997
21
161.59900000000005
31
0
0
LINE
5
156
100
AcDbEntity
8
0
100
AcDbLine
10
165
20
230
30
0
11
165
21
185.59900000000005
31
0
0
LINE
5
157
100
AcDbEntity
8
0
100
AcDbLine
10
179.26600000000002
20
230
30
0
11
179.26600000000002
21
185.59900000000005
31
0
0
LINE
5
158
100
AcDbEntity
8
0
100
AcDbLine
10
193.666
20
88.393999999999991
30
0
11
193.666
21
43.993300000000005
31
0
0
LINE
5
159
100
AcDbEntity
8
0
100
AcDbLine
10
168.59899999999996
20
135.19900000000001
30
0
11
168.59899999999996
21
90.799999999999997
31
0
0
LINE
5
160
100
AcDbEntity
8
0
100
AcDbLine
10
193.666
20
135.19900000000001
30
0
11
193.666
21
90.799999999999997
31
0
0
LINE
5
161
100
AcDbEntity
8
0
100
AcDbLine
10
197.26599999999996
20
135.19900000000001
30
0
11
197.26599999999996
21
90.799999999999997
31
0
0
LINE
5
162
100
AcDbEntity
8
0
100
AcDbLine
10
172.06599999999995
20
135.19900000000001
30
0
11
172.06599999999995
21
90.799999999999997
31
0
0
LINE
5
163
100
AcDbEntity
8
0
100
AcDbLine
10
182.86599999999999
20
135.19900000000001
30
0
11
182.86599999999999
21
90.799999999999997
31
0
0
LINE
5
164
100
AcDbEntity
8
0
100
AcDbLine
10
182.86599999999999
20
183.20000000000005
30
0
11
182.86599999999999
21
137.59900000000005
31
0
0
LINE
5
165
100
AcDbEntity
8
0
100
AcDbLine
10
195.46700000000001
20
207.20000000000002
30
0
11
195.46700000000001
21
161.59900000000005
31
0
0
LINE
5
166
100
AcDbEntity
8
0
100
AcDbLine
10
175.666
20
183.20000000000005
30
0
11
175.666
21
137.59900000000005
31
0
0
LINE
5
167
100
AcDbEntity
8
0
100
AcDbLine
10
172.06599999999995
20
230
30
0
11
172.06599999999995
21
185.59900000000005
31
0
0
LINE
5
168
100
AcDbEntity
8
0
100
AcDbLine
10
173.86600000000001
20
207.20000000000002
30
0
11
173.86600000000001
21
161.59900000000005
31
0
0
LINE
5
169
100
AcDbEntity
8
0
100
AcDbLine
10
173.86600000000001
20
159.20000000000002
30
0
11
173.86600000000001
21
113.59899999999999
31
0
0
LINE
5
170
100
AcDbEntity
8
0
100
AcDbLine
10
193.666
20
230
30
0
11
193.666
21
185.59900000000005
31
0
0
LINE
5
171
100
AcDbEntity
8
0
100
AcDbLine
10
182.86599999999999
20
230
30
0
11
182.86599999999999
21
185.59900000000005
31
0
0
LINE
5
172
100
AcDbEntity
8
0
100
AcDbLine
10
172.06599999999995
20
183.20000000000005
30
0
11
172.06599999999995
21
137.59900000000005
31
0
0
LINE
5
173
100
AcDbEntity
8
0
100
AcDbLine
10
197.26599999999996
20
230
30
0
11
197.26599999999996
21
185.59900000000005
31
0
0
LINE
5
174
100
AcDbEntity
8
0
100
AcDbLine
10
170.39900000000003
20
207.20000000000002
30
0
11
170.39900000000003
21
161.59900000000005
31
0
0
LINE
5
175
100
AcDbEntity
8
0
100
AcDbLine
10
175.666
20
230
30
0
11
175.666
21
185.59900000000005
31
0
0
LINE
5
176
100
AcDbEntity
8
0
100
AcDbLine
10
186.46700000000004
20
230
30
0
11
186.46700000000004
21
185.59900000000005
31
0
0
LINE
5
177
100
AcDbEntity
8
0
100
AcDbLine
10
190.06599999999997
20
183.20000000000005
30
0
11
190.06599999999997
21
137.59900000000005
31
0
0
LINE
5
178
100
AcDbEntity
8
0
100
AcDbLine
10
186.46700000000004
20
183.20000000000005
30
0
11
186.46700000000004
21
137.59900000000005
31
0
0
LINE
5
179
100
AcDbEntity
8
0
100
AcDbLine
10
184.666
20
159.20000000000002
30
0
11
184.666
21
113.59899999999999
31
0
0
LINE
5
180
100
AcDbEntity
8
0
100
AcDbLine
10
179.26600000000002
20
183.20000000000005
30
0
11
179.26600000000002
21
137.59900000000005
31
0
0
LINE
5
181
100
AcDbEntity
8
0
100
AcDbLine
10
165
20
183.20000000000005
30
0
11
165
21
137.59900000000005
31
0
0
LINE
5
182
100
AcDbEntity
8
0
100
AcDbLine
10
166.80000000000001
20
159.20000000000002
30
0
11
166.80000000000001
21
113.59899999999999
31
0
0
LINE
5
183
100
AcDbEntity
8
0
100
AcDbLine
10
188.26599999999999
20
64.393999999999991
30
0
11
188.26599999999999
21
19.942599999999999
31
0
0
LINE
5
184
100
AcDbEntity
8
0
100
AcDbLine
10
191.86599999999999
20
159.20000000000002
30
0
11
191.86599999999999
21
113.59899999999999
31
0
0
LINE
5
185
100
AcDbEntity
8
0
100
AcDbLine
10
195.46700000000001
20
159.20000000000002
30
0
11
195.46700000000001
21
113.59899999999999
31
0
0
LINE
5
186
100
AcDbEntity
8
0
100
AcDbLine
10
193.666
20
183.20000000000005
30
0
11
193.666
21
137.59900000000005
31
0
0
LINE
5
187
100
AcDbEntity
8
0
100
AcDbLine
10
168.59899999999996
20
183.20000000000005
30
0
11
168.59899999999996
21
137.59900000000005
31
0
0
LINE
5
188
100
AcDbEntity
8
0
100
AcDbLine
10
177.46499999999997
20
159.20000000000002
30
0
11
177.46499999999997
21
113.59899999999999
31
0
0
LINE
5
189
100
AcDbEntity
8
0
100
AcDbLine
10
197.26599999999996
20
183.20000000000005
30
0
11
197.26599999999996
21
137.59900000000005
31
0
0
LINE
5
190
100
AcDbEntity
8
0
100
AcDbLine
10
181.066
20
159.20000000000002
30
0
11
181.066
21
113.59899999999999
31
0
0
LINE
5
191
100
AcDbEntity
8
0
100
AcDbLine
10
168.59899999999996
20
41.5944
30
0
11
168.59899999999996
21
4.999999925494194
31
0
0
LINE
5
192
100
AcDbEntity
8
0
100
AcDbLine
10
181.066
20
64.393999999999991
30
0
11
181.066
21
19.942599999999999
31
0
0
LINE
5
193
100
AcDbEntity
8
0
100
AcDbLine
10
197.26599999999996
20
41.5944
30
0
11
197.26599999999996
21
4.999999925494194
31
0
0
LINE
5
194
100
AcDbEntity
8
0
100
AcDbLine
10
193.666
20
41.5944
30
0
11
193.666
21
4.999999925494194
31
0
0
LINE
5
195
100
AcDbEntity
8
0
100
AcDbLine
10
175.666
20
41.5944
30
0
11
175.66600000000005
21
4.999999925494194
31
0
0
LINE
5
196
100
AcDbEntity
8
0
100
AcDbLine
10
186.46700000000004
20
41.5944
30
0
11
186.46700000000004
21
4.999999925494194
31
0
0
LINE
5
197
100
AcDbEntity
8
0
100
AcDbLine
10
179.26600000000002
20
41.5944
30
0
11
179.26600000000002
21
4.999999925494194
31
0
0
LINE
5
198
100
AcDbEntity
8
0
100
AcDbLine
10
170.39900000000003
20
159.20000000000002
30
0
11
170.39900000000003
21
113.59899999999999
31
0
0
LINE
5
199
100
AcDbEntity
8
0
100
AcDbLine
10
177.46499999999997
20
64.393999999999991
30
0
11
177.46499999999997
21
19.942599999999999
31
0
0
LINE
5
200
100
AcDbEntity
8
0
100
AcDbLine
10
170.39900000000003
20
64.393999999999991
30
0
11
170.39900000000003
21
19.942599999999999
31
0
0
LINE
5
201
100
AcDbEntity
8
0
100
AcDbLine
10
173.86600000000001
20
64.393999999999991
30
0
11
173.86600000000001
21
19.942599999999999
31
0
0
LINE
5
202
100
AcDbEntity
8
0
100
AcDbLine
10
191.86599999999999
20
64.393999999999991
30
0
11
191.86599999999999
21
19.942599999999999
31
0
0
LINE
5
203
100
AcDbEntity
8
0
100
AcDbLine
10
190.06599999999997
20
41.5944
30
0
11
190.06599999999997
21
4.999999925494194
31
0
0
LINE
5
204
100
AcDbEntity
8
0
100
AcDbLine
10
173.86600000000001
20
17.594199999999994
30
0
11
173.86600000000004
21
4.999999925494194
31
0
0
LINE
5
205
100
AcDbEntity
8
0
100
AcDbLine
10
184.666
20
64.393999999999991
30
0
11
184.666
21
19.942599999999999
31
0
0
LINE
5
206
100
AcDbEntity
8
0
100
AcDbLine
10
166.80000000000001
20
64.393999999999991
30
0
11
166.80000000000001
21
19.942599999999999
31
0
0
LINE
5
207
100
AcDbEntity
8
0
100
AcDbLine
10
188.26599999999999
20
159.20000000000002
30
0
11
188.26599999999999
21
113.59899999999999
31
0
0
LINE
5
208
100
AcDbEntity
8
0
100
AcDbLine
10
195.46700000000001
20
64.393999999999991
30
0
11
195.46700000000001
21
19.942599999999999
31
0
0
LINE
5
209
100
AcDbEntity
8
0
100
AcDbLine
10
172.06599999999995
20
41.5944
30
0
11
172.06599999999997
21
4.999999925494194
31
0
0
LINE
5
210
100
AcDbEntity
8
0
100
AcDbLine
10
165
20
41.5944
30
0
11
165
21
4.999999925494194
31
0
0
LWPOLYLINE
5
211
100
AcDbEntity
8
0
100
AcDbPolyline
90
4
70
1
43
0.0
10
26.999998167157173
20
47.749999999999986
10
29.99999816715718
20
47.749999999999986
10
29.99999816715718
20
77.749999999999986
10
26.999998167157173
20
77.749999999999986
0
LWPOLYLINE
5
212
100
AcDbEntity
8
0
100
AcDbPolyline
90
4
70
1
43
0.0
10
29.99999816715718
20
187.25
10
26.999998167157173
20
187.25
10
26.999998167157173
20
157.25
10
29.99999816715718
20
157.25
0
LWPOLYLINE
5
213
100
AcDbEntity
8
0
100
AcDbPolyline
90
36
70
1
43
0.0
10
361.22425117949297
20
170.97155823266704
10
361.22425117949297
20
190.97155823266695
10
358.22425117949302
20
190.97155823266695
10
358.22425117949302
20
210.97155823266689
10
361.22425117949297
20
210.97155823266689
10
361.22425117949308
20
232.97155823266684
10
365.22425123909761
20
232.97155823266684
10
365.22425123909761
20
229.97155823266684
10
377.22425111988832
20
229.97155823266684
10
377.22425111988832
20
232.97155823266684
10
384.22425117949297
20
232.97155823266684
10
384.22425117949297
20
220.47155823266684
10
381.22425117949291
20
220.47155823266684
10
381.22425117949285
20
20.471558232667473
10
384.2242511794928
20
20.471558232667462
10
384.2242511794928
20
7.9715582326675172
10
377.22425111988821
20
7.9715582326675261
10
377.22425111988821
20
10.971558232667524
10
365.22425123909755
20
10.971558232667524
10
365.22425123909755
20
7.9715582326675261
10
361.22425117949291
20
7.9715582326675349
10
361.22425117949291
20
30.971558232667469
10
358.22425117949297
20
30.971558232667469
10
358.22425117949297
20
50.971558232667405
10
361.22425117949291
20
50.971558232667405
10
361.22425117949291
20
70.971558232667334
10
358.22425117949297
20
70.971558232667348
10
358.22425117949297
20
90.971558232667292
10
361.22425117949291
20
90.971558232667292
10
361.22425117949297
20
110.97155823266723
10
358.22425117949297
20
110.97155823266723
10
358.22425117949297
20
130.97155823266715
10
361.22425117949297
20
130.97155823266715
10
361.22425117949297
20
150.97155823266712
10
358.22425117949302
20
150.97155823266712
10
358.22425117949302
20
170.97155823266704
0
LWPOLYLINE
5
214
100
AcDbEntity
8
0
100
AcDbPolyline
90
20
70
1
43
0.0
10
393.27848614622792
20
5.6639112439826533
10
393.27848614622792
20
8.6639145222381231
10
389.2784863846465
20
8.6639145222381231
10
389.2784863846465
20
48.413914522238073
10
386.2784863846465
20
48.413914522238073
10
386.2784863846465
20
78.413914522238059
10
389.2784863846465
20
78.413914522238059
10
389.2784863846465
20
157.91391452223806
10
386.27848638464656
20
157.91391452223806
10
386.27848638464656
20
187.91391452223806
10
389.2784863846465
20
187.91391452223806
10
389.2784863846465
20
227.663914522238
10
393.27848614622792
20
227.663914522238
10
393.27848614622792
20
230.663914522238
10
405.27848662306508
20
230.663914522238
10
405.27848662306508
20
227.663914522238
10
409.2784863846465
20
227.663914522238
10
409.27848638464644
20
8.6639145222381231
10
405.27848662306502
20
8.6639145222381231
10
405.27848662306502
20
5.6639112439826533
0
ENDSEC
0
SECTION
2
OBJECTS
0
DICTIONARY
5
C
100
AcDbDictionary
3
ACAD_GROUP
350
D
3
ACAD_MLINESTYLE
350
17
0
DICTIONARY
5
D
100
AcDbDictionary
0
DICTIONARY
5
1A
330
C
100
AcDbDictionary
0
DICTIONARY
5
17
100
AcDbDictionary
0
ENDSEC
0
EOF
