0
SECTION
2
HEADER
9
$INSUNITS
70
1
9
$ACADVER
1
AC1014
9
$HANDSEED
5
FFFF
0
ENDSEC
0
SECTION
2
TABLES
0
TABLE
2
VPORT
5
8
100
AcDbSymbolTable
0
ENDTAB
0
TABLE
2
LTYPE
5
5
100
AcDbSymbolTable
0
LTYPE
5
14
100
AcDbSymbolTableRecord
100
AcDbLinetypeTableRecord
2
BYBLOCK
70
0
0
LTYPE
5
15
100
AcDbSymbolTableRecord
100
AcDbLinetypeTableRecord
2
BYLAYER
70
0
0
ENDTAB
0
TABLE
2
LAYER
5
2
100
AcDbSymbolTable
70
2
0
LAYER
5
50
100
AcDbSymbolTableRecord
100
AcDbLayerTableRecord
2
0
70
0
6
CONTINUOUS
0
ENDTAB
0
TABLE
2
STYLE
5
3
100
AcDbSymbolTable
70
1
0
STYLE
5
11
100
AcDbSymbolTableRecord
100
AcDbTextStyleTableRecord
2
STANDARD
70
0
0
ENDTAB
0
TABLE
2
VIEW
5
6
100
AcDbSymbolTable
70
0
0
ENDTAB
0
TABLE
2
UCS
5
7
100
AcDbSymbolTable
70
0
0
ENDTAB
0
TABLE
2
APPID
5
9
100
AcDbSymbolTable
70
2
0
APPID
5
12
100
AcDbSymbolTableRecord
100
AcDbRegAppTableRecord
2
ACAD
70
0
0
ENDTAB
0
TABLE
2
DIMSTYLE
5
A
100
AcDbSymbolTable
70
1
0
ENDTAB
0
TABLE
2
BLOCK_RECORD
5
1
100
AcDbSymbolTable
70
1
0
BLOCK_RECORD
5
1F
100
AcDbSymbolTableRecord
100
AcDbBlockTableRecord
2
*MODEL_SPACE
0
BLOCK_RECORD
5
1B
100
AcDbSymbolTableRecord
100
AcDbBlockTableRecord
2
*PAPER_SPACE
0
ENDTAB
0
ENDSEC
0
SECTION
2
BLOCKS
0
BLOCK
5
20
100
AcDbEntity
100
AcDbBlockBegin
2
*MODEL_SPACE
0
ENDBLK
5
21
100
AcDbEntity
100
AcDbBlockEnd
0
BLOCK
5
1C
100
AcDbEntity
100
AcDbBlockBegin
2
*PAPER_SPACE
0
ENDBLK
5
1D
100
AcDbEntity
100
AcDbBlockEnd
0
ENDSEC
0
SECTION
2
ENTITIES
0
LWPOLYLINE
5
100
100
AcDbEntity
8
0
100
AcDbPolyline
90
28
70
1
43
0.0
10
-17.738612070075803
20
5.94785874164271
10
-17.738612070075803
20
5.9025831459289169
10
-17.651997896847455
20
5.9025831459289169
10
-17.651997896847455
20
5.94785874164271
10
-17.445305648029958
20
5.94785874164271
10
-17.445305648029958
20
5.5000000638285957
10
-17.320305648029954
20
5.5000000638285957
10
-17.320305648029954
20
4.5000000638285957
10
-17.445305648029958
20
4.5000000638285957
10
-17.445305648029958
20
4.0659689778631822
10
-17.651997896847455
20
4.0659689778631822
10
-17.651997896847455
20
4.1112445632517529
10
-17.738612070075803
20
4.1112445632517529
10
-17.738612070075803
20
4.0659689778631822
10
-17.738612070075803
20
3.9478587416427104
10
-17.738612070075803
20
3.9025831459289182
10
-17.651997896847455
20
3.9025831459289182
10
-17.651997896847455
20
3.9478587416427104
10
-17.445305648029958
20
3.9478587416427104
10
-17.445305648029958
20
3.5
10
-18.500000695731693
20
3.7000000063828593
10
-17.700000670200254
20
6.5000000957428936
10
-17.445305648029958
20
6.5000000957428936
10
-17.445305648029958
20
6.0659689778631813
10
-17.651997896847455
20
6.0659689778631813
10
-17.651997896847455
20
6.111244563251752
10
-17.738612070075803
20
6.111244563251752
10
-17.738612070075803
20
6.0659689778631813
0
LWPOLYLINE
5
101
100
AcDbEntity
8
0
100
AcDbPolyline
90
4
70
1
43
0.0
10
-8.9999998648335602
20
2.9999999549445202
10
-19.999999699630134
20
2.9999999549445202
10
-19.999999699630134
20
0
10
-8.9999998648335602
20
0
0
CIRCLE
5
102
100
AcDbEntity
8
0
100
AcDbCircle
10
-19.800000631903099
20
0.50000001595714894
30
0
40
0.059055118110235665
0
CIRCLE
5
103
100
AcDbEntity
8
0
100
AcDbCircle
10
-19.800000631903099
20
2.5000000797857447
30
0
40
0.059055118110236192
0
CIRCLE
5
104
100
AcDbEntity
8
0
100
AcDbCircle
10
-9.1999989325605966
20
0.50000001595714894
30
0
40
0.059055118110235665
0
CIRCLE
5
105
100
AcDbEntity
8
0
100
AcDbCircle
10
-9.1999989325605966
20
2.5000000797857447
30
0
40
0.059055118110236192
0
LWPOLYLINE
5
106
100
AcDbEntity
8
0
100
AcDbPolyline
90
4
70
1
43
0.0
10
-19.862500631903096
20
1.000000047871447
10
-19.737500631903099
20
1.000000047871447
10
-19.737500631903099
20
2.0000000478714468
10
-19.862500631903096
20
2.0000000478714468
0
LWPOLYLINE
5
107
100
AcDbEntity
8
0
100
AcDbPolyline
90
28
70
1
43
0.0
10
-19.238612070075803
20
6.111244563251752
10
-19.238612070075803
20
6.0659689778631813
10
-19.238612070075803
20
5.94785874164271
10
-19.238612070075803
20
5.9025831459289169
10
-19.151997896847455
20
5.9025831459289169
10
-19.151997896847455
20
5.94785874164271
10
-18.945305648029958
20
5.94785874164271
10
-18.945305648029958
20
5.5000000638285957
10
-18.820305648029954
20
5.5000000638285957
10
-18.820305648029954
20
4.5000000638285957
10
-18.945305648029958
20
4.5000000638285957
10
-18.945305648029958
20
4.0659689778631822
10
-19.151997896847455
20
4.0659689778631822
10
-19.151997896847455
20
4.1112445632517529
10
-19.238612070075803
20
4.1112445632517529
10
-19.238612070075803
20
4.0659689778631822
10
-19.238612070075803
20
3.9478587416427104
10
-19.238612070075803
20
3.9025831459289182
10
-19.151997896847455
20
3.9025831459289182
10
-19.151997896847455
20
3.9478587416427104
10
-18.945305648029958
20
3.9478587416427104
10
-18.945305648029958
20
3.5
10
-20.000000695731693
20
3.7000000063828593
10
-19.200000670200254
20
6.5000000957428936
10
-18.945305648029958
20
6.5000000957428936
10
-18.945305648029958
20
6.0659689778631813
10
-19.151997896847455
20
6.0659689778631813
10
-19.151997896847455
20
6.111244563251752
0
LWPOLYLINE
5
108
100
AcDbEntity
8
0
100
AcDbPolyline
90
28
70
1
43
0.0
10
-16.238612070075799
20
6.111244563251752
10
-16.238612070075799
20
6.0659689778631813
10
-16.238612070075799
20
5.94785874164271
10
-16.238612070075799
20
5.9025831459289169
10
-16.151997896847455
20
5.9025831459289169
10
-16.151997896847455
20
5.94785874164271
10
-15.945305648029958
20
5.94785874164271
10
-15.945305648029958
20
5.5000000638285957
10
-15.820305648029954
20
5.5000000638285957
10
-15.820305648029954
20
4.5000000638285957
10
-15.945305648029958
20
4.5000000638285957
10
-15.945305648029958
20
4.0659689778631822
10
-16.151997896847455
20
4.0659689778631822
10
-16.151997896847455
20
4.1112445632517529
10
-16.238612070075799
20
4.1112445632517529
10
-16.238612070075799
20
4.0659689778631822
10
-16.238612070075799
20
3.9478587416427104
10
-16.238612070075799
20
3.9025831459289182
10
-16.151997896847455
20
3.9025831459289182
10
-16.151997896847455
20
3.9478587416427104
10
-15.945305648029958
20
3.9478587416427104
10
-15.945305648029958
20
3.5
10
-17.000000695731693
20
3.7000000063828593
10
-16.200000670200254
20
6.5000000957428936
10
-15.945305648029958
20
6.5000000957428936
10
-15.945305648029958
20
6.0659689778631813
10
-16.151997896847455
20
6.0659689778631813
10
-16.151997896847455
20
6.111244563251752
0
LWPOLYLINE
5
109
100
AcDbEntity
8
0
100
AcDbPolyline
90
28
70
1
43
0.0
10
-14.738612070075799
20
6.111244563251752
10
-14.738612070075799
20
6.0659689778631813
10
-14.738612070075799
20
5.94785874164271
10
-14.738612070075799
20
5.9025831459289169
10
-14.651997896847455
20
5.9025831459289169
10
-14.651997896847455
20
5.94785874164271
10
-14.445305648029958
20
5.94785874164271
10
-14.445305648029958
20
5.5000000638285957
10
-14.32030564802996
20
5.5000000638285957
10
-14.32030564802996
20
4.5000000638285957
10
-14.445305648029958
20
4.5000000638285957
10
-14.445305648029958
20
4.0659689778631822
10
-14.651997896847455
20
4.0659689778631822
10
-14.651997896847455
20
4.1112445632517529
10
-14.738612070075799
20
4.1112445632517529
10
-14.738612070075799
20
4.0659689778631822
10
-14.738612070075799
20
3.9478587416427104
10
-14.738612070075799
20
3.9025831459289182
10
-14.651997896847455
20
3.9025831459289182
10
-14.651997896847455
20
3.9478587416427104
10
-14.445305648029958
20
3.9478587416427104
10
-14.445305648029958
20
3.5
10
-15.500000695731696
20
3.7000000063828593
10
-14.700000670200259
20
6.5000000957428936
10
-14.445305648029958
20
6.5000000957428936
10
-14.445305648029958
20
6.0659689778631813
10
-14.651997896847455
20
6.0659689778631813
10
-14.651997896847455
20
6.111244563251752
0
LWPOLYLINE
5
110
100
AcDbEntity
8
0
100
AcDbPolyline
90
28
70
1
43
0.0
10
-8.445305648029958
20
4.5000000638285957
10
-8.445305648029958
20
4.0659689778631822
10
-8.6519978968474547
20
4.0659689778631822
10
-8.6519978968474547
20
4.1112445632517529
10
-8.738612070075801
20
4.1112445632517529
10
-8.738612070075801
20
4.0659689778631822
10
-8.738612070075801
20
3.9478587416427104
10
-8.738612070075801
20
3.9025831459289182
10
-8.6519978968474547
20
3.9025831459289182
10
-8.6519978968474547
20
3.9478587416427104
10
-8.445305648029958
20
3.9478587416427104
10
-8.445305648029958
20
3.5
10
-9.5000006957316945
20
3.7000000063828593
10
-8.7000006702002572
20
6.5000000957428936
10
-8.445305648029958
20
6.5000000957428936
10
-8.445305648029958
20
6.0659689778631813
10
-8.6519978968474547
20
6.0659689778631813
10
-8.6519978968474547
20
6.111244563251752
10
-8.738612070075801
20
6.111244563251752
10
-8.738612070075801
20
6.0659689778631813
10
-8.738612070075801
20
5.94785874164271
10
-8.738612070075801
20
5.9025831459289169
10
-8.6519978968474547
20
5.9025831459289169
10
-8.6519978968474547
20
5.94785874164271
10
-8.445305648029958
20
5.94785874164271
10
-8.445305648029958
20
5.5000000638285957
10
-8.320305648029958
20
5.5000000638285957
10
-8.320305648029958
20
4.5000000638285957
0
LWPOLYLINE
5
111
100
AcDbEntity
8
0
100
AcDbPolyline
90
28
70
1
43
0.0
10
-13.238612070075799
20
6.0659689778631813
10
-13.238612070075799
20
5.94785874164271
10
-13.238612070075799
20
5.9025831459289169
10
-13.151997896847453
20
5.9025831459289169
10
-13.151997896847453
20
5.94785874164271
10
-12.945305648029956
20
5.94785874164271
10
-12.945305648029956
20
5.5000000638285957
10
-12.820305648029958
20
5.5000000638285957
10
-12.820305648029958
20
4.5000000638285957
10
-12.945305648029956
20
4.5000000638285957
10
-12.945305648029956
20
4.0659689778631822
10
-13.151997896847453
20
4.0659689778631822
10
-13.151997896847453
20
4.1112445632517529
10
-13.238612070075799
20
4.1112445632517529
10
-13.238612070075799
20
4.0659689778631822
10
-13.238612070075799
20
3.9478587416427104
10
-13.238612070075799
20
3.9025831459289182
10
-13.151997896847453
20
3.9025831459289182
10
-13.151997896847453
20
3.9478587416427104
10
-12.945305648029956
20
3.9478587416427104
10
-12.945305648029956
20
3.5
10
-14.000000695731696
20
3.7000000063828593
10
-13.200000670200257
20
6.5000000957428936
10
-12.945305648029956
20
6.5000000957428936
10
-12.945305648029956
20
6.0659689778631813
10
-13.151997896847453
20
6.0659689778631813
10
-13.151997896847453
20
6.111244563251752
10
-13.238612070075799
20
6.111244563251752
0
LWPOLYLINE
5
112
100
AcDbEntity
8
0
100
AcDbPolyline
90
28
70
1
43
0.0
10
-10.151997896847453
20
4.0659689778631822
10
-9.9453056480299562
20
4.0659689778631822
10
-9.9453056480299562
20
4.5000000638285957
10
-9.8203056480299562
20
4.5000000638285957
10
-9.8203056480299562
20
5.5000000638285957
10
-9.9453056480299562
20
5.5000000638285957
10
-9.9453056480299562
20
5.94785874164271
10
-10.151997896847453
20
5.94785874164271
10
-10.151997896847453
20
5.9025831459289169
10
-10.238612070075799
20
5.9025831459289169
10
-10.238612070075799
20
5.94785874164271
10
-10.238612070075799
20
6.0659689778631813
10
-10.238612070075799
20
6.111244563251752
10
-10.151997896847453
20
6.111244563251752
10
-10.151997896847453
20
6.0659689778631813
10
-9.9453056480299562
20
6.0659689778631813
10
-9.9453056480299562
20
6.5000000957428936
10
-10.200000670200255
20
6.5000000957428936
10
-11.000000695731693
20
3.7000000063828593
10
-9.9453056480299562
20
3.5
10
-9.9453056480299562
20
3.9478587416427104
10
-10.151997896847453
20
3.9478587416427104
10
-10.151997896847453
20
3.9025831459289182
10
-10.238612070075799
20
3.9025831459289182
10
-10.238612070075799
20
3.9478587416427104
10
-10.238612070075799
20
4.0659689778631822
10
-10.238612070075799
20
4.1112445632517529
10
-10.151997896847453
20
4.1112445632517529
0
LWPOLYLINE
5
113
100
AcDbEntity
8
0
100
AcDbPolyline
90
28
70
1
43
0.0
10
-11.651997896847453
20
5.9025831459289169
10
-11.651997896847453
20
5.94785874164271
10
-11.445305648029958
20
5.94785874164271
10
-11.445305648029958
20
5.5000000638285957
10
-11.320305648029956
20
5.5000000638285957
10
-11.320305648029956
20
4.5000000638285957
10
-11.445305648029958
20
4.5000000638285957
10
-11.445305648029958
20
4.0659689778631822
10
-11.651997896847453
20
4.0659689778631822
10
-11.651997896847453
20
4.1112445632517529
10
-11.738612070075799
20
4.1112445632517529
10
-11.738612070075799
20
4.0659689778631822
10
-11.738612070075799
20
3.9478587416427104
10
-11.738612070075799
20
3.9025831459289182
10
-11.651997896847453
20
3.9025831459289182
10
-11.651997896847453
20
3.9478587416427104
10
-11.445305648029958
20
3.9478587416427104
10
-11.445305648029958
20
3.5
10
-12.500000695731694
20
3.7000000063828593
10
-11.700000670200255
20
6.5000000957428936
10
-11.445305648029958
20
6.5000000957428936
10
-11.445305648029958
20
6.0659689778631813
10
-11.651997896847453
20
6.0659689778631813
10
-11.651997896847453
20
6.111244563251752
10
-11.738612070075799
20
6.111244563251752
10
-11.738612070075799
20
6.0659689778631813
10
-11.738612070075799
20
5.94785874164271
10
-11.738612070075799
20
5.9025831459289169
0
ARC
5
114
100
AcDbEntity
8
0
100
AcDbCircle
10
-17.299999999999997
20
-0.10000000000000017
30
0
40
0.20000000000000104
100
AcDbArc
50
180
51
270
0
LINE
5
115
100
AcDbEntity
8
0
100
AcDbLine
10
-15.299999999999999
20
-0.30000000000000016
30
0
11
-14.699999968085701
21
-0.30000000000000016
31
0
0
ARC
5
116
100
AcDbEntity
8
0
100
AcDbCircle
10
-14.699999968085701
20
-0.10000000000000017
30
0
40
0.19999999999999998
100
AcDbArc
50
-90
51
0
0
ARC
5
117
100
AcDbEntity
8
0
100
AcDbCircle
10
-16.699999968085699
20
-0.10000000000000017
30
0
40
0.19999999999999998
100
AcDbArc
50
-90
51
0
0
ARC
5
118
100
AcDbEntity
8
0
100
AcDbCircle
10
-16.300000000000001
20
-0.10000000000000017
30
0
40
0.20000000000000104
100
AcDbArc
50
180
51
270
0
ARC
5
119
100
AcDbEntity
8
0
100
AcDbCircle
10
-14.300000000000001
20
-0.10000000000000017
30
0
40
0.19999999999999823
100
AcDbArc
50
180
51
270
0
ARC
5
120
100
AcDbEntity
8
0
100
AcDbCircle
10
-15.699999968085701
20
-0.10000000000000017
30
0
40
0.19999999999999998
100
AcDbArc
50
-90
51
0
0
ARC
5
121
100
AcDbEntity
8
0
100
AcDbCircle
10
-15.299999999999999
20
-0.10000000000000017
30
0
40
0.20000000000000104
100
AcDbArc
50
180
51
270
0
LINE
5
122
100
AcDbEntity
8
0
100
AcDbLine
10
-16.300000000000001
20
-0.30000000000000016
30
0
11
-15.699999968085701
21
-0.30000000000000016
31
0
0
LINE
5
123
100
AcDbEntity
8
0
100
AcDbLine
10
-10.300000000000001
20
-0.30000000000000016
30
0
11
-9.6999999680857023
21
-0.30000000000000016
31
0
0
LINE
5
124
100
AcDbEntity
8
0
100
AcDbLine
10
-17.299999999999997
20
-0.30000000000000016
30
0
11
-16.699999968085699
21
-0.30000000000000016
31
0
0
LINE
5
125
100
AcDbEntity
8
0
100
AcDbLine
10
-13.299999999999997
20
-0.30000000000000016
30
0
11
-12.699999968085702
21
-0.30000000000000016
31
0
0
ARC
5
126
100
AcDbEntity
8
0
100
AcDbCircle
10
-17.699999968085702
20
-0.10000000000000017
30
0
40
0.19999999999999998
100
AcDbArc
50
-90
51
0
0
ARC
5
127
100
AcDbEntity
8
0
100
AcDbCircle
10
-11.699999968085701
20
-0.10000000000000017
30
0
40
0.19999999999999998
100
AcDbArc
50
-90
51
0
0
LINE
5
128
100
AcDbEntity
8
0
100
AcDbLine
10
-11.299999999999999
20
-0.30000000000000016
30
0
11
-10.699999968085701
21
-0.30000000000000016
31
0
0
ARC
5
129
100
AcDbEntity
8
0
100
AcDbCircle
10
-13.299999999999997
20
-0.10000000000000017
30
0
40
0.20000000000000104
100
AcDbArc
50
180
51
270
0
ARC
5
130
100
AcDbEntity
8
0
100
AcDbCircle
10
-13.699999968085701
20
-0.10000000000000017
30
0
40
0.19999999999999998
100
AcDbArc
50
-90
51
0
0
ARC
5
131
100
AcDbEntity
8
0
100
AcDbCircle
10
-10.300000000000001
20
-0.10000000000000017
30
0
40
0.19999999999999962
100
AcDbArc
50
180
51
270
0
ARC
5
132
100
AcDbEntity
8
0
100
AcDbCircle
10
-11.299999999999999
20
-0.10000000000000017
30
0
40
0.19999999999999962
100
AcDbArc
50
180
51
270
0
ARC
5
133
100
AcDbEntity
8
0
100
AcDbCircle
10
-12.299999999999999
20
-0.10000000000000017
30
0
40
0.19999999999999962
100
AcDbArc
50
180
51
270
0
ARC
5
134
100
AcDbEntity
8
0
100
AcDbCircle
10
-18.699999968085702
20
-0.10000000000000017
30
0
40
0.19999999999999998
100
AcDbArc
50
-90
51
0
0
ARC
5
135
100
AcDbEntity
8
0
100
AcDbCircle
10
-18.299999999999997
20
-0.10000000000000017
30
0
40
0.20000000000000104
100
AcDbArc
50
180
51
270
0
ARC
5
136
100
AcDbEntity
8
0
100
AcDbCircle
10
-10.699999968085701
20
-0.10000000000000017
30
0
40
0.19999999999999998
100
AcDbArc
50
-90
51
0
0
ARC
5
137
100
AcDbEntity
8
0
100
AcDbCircle
10
-9.6999999680857023
20
-0.10000000000000017
30
0
40
0.19999999999999998
100
AcDbArc
50
-90
51
0
0
LINE
5
138
100
AcDbEntity
8
0
100
AcDbLine
10
-12.299999999999999
20
-0.30000000000000016
30
0
11
-11.699999968085701
21
-0.30000000000000016
31
0
0
LINE
5
139
100
AcDbEntity
8
0
100
AcDbLine
10
-19.299999999999997
20
-0.30000000000000016
30
0
11
-18.699999968085702
21
-0.30000000000000016
31
0
0
ARC
5
140
100
AcDbEntity
8
0
100
AcDbCircle
10
-19.299999999999997
20
-0.10000000000000017
30
0
40
0.20000000000000104
100
AcDbArc
50
180
51
270
0
LINE
5
141
100
AcDbEntity
8
0
100
AcDbLine
10
-18.299999999999997
20
-0.30000000000000016
30
0
11
-17.699999968085702
21
-0.30000000000000016
31
0
0
ARC
5
142
100
AcDbEntity
8
0
100
AcDbCircle
10
-12.699999968085702
20
-0.10000000000000017
30
0
40
0.19999999999999998
100
AcDbArc
50
-90
51
0
0
LINE
5
143
100
AcDbEntity
8
0
100
AcDbLine
10
-10.136135854846872
20
-0.074993305749615574
30
0
11
-10.197659299856118
21
-0.074993305749615574
31
0
0
LINE
5
144
100
AcDbEntity
8
0
100
AcDbLine
10
-14.300000000000001
20
-0.30000000000000016
30
0
11
-13.699999968085701
21
-0.30000000000000016
31
0
0
LINE
5
145
100
AcDbEntity
8
0
100
AcDbLine
10
-9.4999999680857012
20
-0.10000000000000017
30
0
11
-9.4999999680857012
21
-0.60000007340288553
31
0
0
LINE
5
146
100
AcDbEntity
8
0
100
AcDbLine
10
-9.4999999680857012
20
-0.60000007340288553
30
0
11
-19.500000622328809
21
-0.60000007340288553
31
0
0
LINE
5
147
100
AcDbEntity
8
0
100
AcDbLine
10
-19.500000622328809
20
-0.60000007340288553
30
0
11
-19.5
21
-0.10000000000000017
31
0
0
LINE
5
148
100
AcDbEntity
8
0
100
AcDbLine
10
-9.4999998573243136
20
-1.2999999549445205
30
0
11
-9.4999998573243136
21
-3.2999999249075338
31
0
0
LINE
5
149
100
AcDbEntity
8
0
100
AcDbLine
10
-9.4999998573243136
20
-3.2999999249075338
30
0
11
-19.499999707139381
21
-3.2999999249075338
31
0
0
LINE
5
150
100
AcDbEntity
8
0
100
AcDbLine
10
-19.499999707139381
20
-3.2999999249075338
30
0
11
-19.499999707139381
21
-1.2999999549445205
31
0
0
LINE
5
151
100
AcDbEntity
8
0
100
AcDbLine
10
-9.4999998573243136
20
-3.7999999098890411
30
0
11
-9.4999998573243136
21
-4.799999894870548
31
0
0
LINE
5
152
100
AcDbEntity
8
0
100
AcDbLine
10
-9.4999998573243136
20
-4.799999894870548
30
0
11
-19.499999707139381
21
-4.799999894870548
31
0
0
LINE
5
153
100
AcDbEntity
8
0
100
AcDbLine
10
-19.499999707139381
20
-4.799999894870548
30
0
11
-19.499999707139381
21
-3.7999999098890411
31
0
0
ARC
5
154
100
AcDbEntity
8
0
100
AcDbCircle
10
-10.699999052896274
20
-0.79999988154163526
30
0
40
0.19999999999999998
100
AcDbArc
50
-90
51
0
0
ARC
5
155
100
AcDbEntity
8
0
100
AcDbCircle
10
-15.699999052896272
20
-0.79999988154163526
30
0
40
0.19999999999999998
100
AcDbArc
50
-90
51
0
0
ARC
5
156
100
AcDbEntity
8
0
100
AcDbCircle
10
-14.299999084810572
20
-0.79999988154163526
30
0
40
0.19999999999999823
100
AcDbArc
50
180
51
270
0
ARC
5
157
100
AcDbEntity
8
0
100
AcDbCircle
10
-12.699999052896274
20
-0.79999988154163526
30
0
40
0.19999999999999998
100
AcDbArc
50
-90
51
0
0
ARC
5
158
100
AcDbEntity
8
0
100
AcDbCircle
10
-12.299999084810572
20
-0.79999988154163526
30
0
40
0.19999999999999962
100
AcDbArc
50
180
51
270
0
ARC
5
159
100
AcDbEntity
8
0
100
AcDbCircle
10
-13.699999052896274
20
-0.79999988154163526
30
0
40
0.19999999999999998
100
AcDbArc
50
-90
51
0
0
ARC
5
160
100
AcDbEntity
8
0
100
AcDbCircle
10
-15.299999084810572
20
-0.79999988154163526
30
0
40
0.20000000000000104
100
AcDbArc
50
180
51
270
0
ARC
5
161
100
AcDbEntity
8
0
100
AcDbCircle
10
-13.299999084810571
20
-0.79999988154163526
30
0
40
0.20000000000000104
100
AcDbArc
50
180
51
270
0
ARC
5
162
100
AcDbEntity
8
0
100
AcDbCircle
10
-11.299999084810572
20
-0.79999988154163526
30
0
40
0.19999999999999962
100
AcDbArc
50
180
51
270
0
ARC
5
163
100
AcDbEntity
8
0
100
AcDbCircle
10
-10.299999084810572
20
-0.79999988154163526
30
0
40
0.19999999999999962
100
AcDbArc
50
180
51
270
0
ARC
5
164
100
AcDbEntity
8
0
100
AcDbCircle
10
-9.6999990528962741
20
-0.79999988154163526
30
0
40
0.19999999999999998
100
AcDbArc
50
-90
51
0
0
ARC
5
165
100
AcDbEntity
8
0
100
AcDbCircle
10
-11.699999052896272
20
-0.79999988154163526
30
0
40
0.19999999999999998
100
AcDbArc
50
-90
51
0
0
LINE
5
166
100
AcDbEntity
8
0
100
AcDbLine
10
-11.299999084810572
20
-0.99999988154163522
30
0
11
-10.699999052896274
21
-0.99999988154163522
31
0
0
LINE
5
167
100
AcDbEntity
8
0
100
AcDbLine
10
-17.299999084810572
20
-0.99999988154163522
30
0
11
-16.699999052896274
21
-0.99999988154163522
31
0
0
LINE
5
168
100
AcDbEntity
8
0
100
AcDbLine
10
-9.4999990528962748
20
-0.79999988154163526
30
0
11
-9.4999990528962748
21
-1.2999999549445205
31
0
0
LINE
5
169
100
AcDbEntity
8
0
100
AcDbLine
10
-10.299999084810572
20
-0.99999988154163522
30
0
11
-9.6999990528962741
21
-0.99999988154163522
31
0
0
LINE
5
170
100
AcDbEntity
8
0
100
AcDbLine
10
-19.299999084810569
20
-0.99999988154163522
30
0
11
-18.699999052896274
21
-0.99999988154163522
31
0
0
ARC
5
171
100
AcDbEntity
8
0
100
AcDbCircle
10
-14.699999052896272
20
-0.79999988154163526
30
0
40
0.19999999999999998
100
AcDbArc
50
-90
51
0
0
LINE
5
172
100
AcDbEntity
8
0
100
AcDbLine
10
-12.299999084810572
20
-0.99999988154163522
30
0
11
-11.699999052896272
21
-0.99999988154163522
31
0
0
LINE
5
173
100
AcDbEntity
8
0
100
AcDbLine
10
-13.299999084810571
20
-0.99999988154163522
30
0
11
-12.699999052896274
21
-0.99999988154163522
31
0
0
ARC
5
174
100
AcDbEntity
8
0
100
AcDbCircle
10
-18.699999052896274
20
-0.79999988154163526
30
0
40
0.19999999999999998
100
AcDbArc
50
-90
51
0
0
ARC
5
175
100
AcDbEntity
8
0
100
AcDbCircle
10
-18.299999084810569
20
-0.79999988154163526
30
0
40
0.20000000000000104
100
AcDbArc
50
180
51
270
0
LINE
5
176
100
AcDbEntity
8
0
100
AcDbLine
10
-10.136134939657445
20
-0.77499318729125066
30
0
11
-10.197658384666692
21
-0.77499318729125066
31
0
0
LINE
5
177
100
AcDbEntity
8
0
100
AcDbLine
10
-18.299999084810569
20
-0.99999988154163522
30
0
11
-17.699999052896274
21
-0.99999988154163522
31
0
0
LINE
5
178
100
AcDbEntity
8
0
100
AcDbLine
10
-19.499999707139381
20
-1.2999999549445205
30
0
11
-19.499999084810572
21
-0.79999988154163526
31
0
0
ARC
5
179
100
AcDbEntity
8
0
100
AcDbCircle
10
-17.299999084810572
20
-0.79999988154163526
30
0
40
0.20000000000000104
100
AcDbArc
50
180
51
270
0
LINE
5
180
100
AcDbEntity
8
0
100
AcDbLine
10
-16.299999084810572
20
-0.99999988154163522
30
0
11
-15.699999052896272
21
-0.99999988154163522
31
0
0
LINE
5
181
100
AcDbEntity
8
0
100
AcDbLine
10
-15.299999084810572
20
-0.99999988154163522
30
0
11
-14.699999052896272
21
-0.99999988154163522
31
0
0
LINE
5
182
100
AcDbEntity
8
0
100
AcDbLine
10
-14.299999084810572
20
-0.99999988154163522
30
0
11
-13.699999052896274
21
-0.99999988154163522
31
0
0
ARC
5
183
100
AcDbEntity
8
0
100
AcDbCircle
10
-16.299999084810572
20
-0.79999988154163526
30
0
40
0.20000000000000104
100
AcDbArc
50
180
51
270
0
ARC
5
184
100
AcDbEntity
8
0
100
AcDbCircle
10
-17.699999052896274
20
-0.79999988154163526
30
0
40
0.19999999999999998
100
AcDbArc
50
-90
51
0
0
ARC
5
185
100
AcDbEntity
8
0
100
AcDbCircle
10
-19.299999084810569
20
-0.79999988154163526
30
0
40
0.20000000000000104
100
AcDbArc
50
180
51
270
0
ARC
5
186
100
AcDbEntity
8
0
100
AcDbCircle
10
-16.699999052896274
20
-0.79999988154163526
30
0
40
0.19999999999999998
100
AcDbArc
50
-90
51
0
0
ARC
5
187
100
AcDbEntity
8
0
100
AcDbCircle
10
-10.699999052896274
20
-3.2999998364861551
30
0
40
0.20000000000000034
100
AcDbArc
50
-90
51
0
0
ARC
5
188
100
AcDbEntity
8
0
100
AcDbCircle
10
-15.699999052896272
20
-3.2999998364861551
30
0
40
0.20000000000000034
100
AcDbArc
50
-90
51
0
0
ARC
5
189
100
AcDbEntity
8
0
100
AcDbCircle
10
-14.299999084810572
20
-3.2999998364861551
30
0
40
0.19999999999999823
100
AcDbArc
50
180
51
270
0
ARC
5
190
100
AcDbEntity
8
0
100
AcDbCircle
10
-12.699999052896274
20
-3.2999998364861551
30
0
40
0.20000000000000034
100
AcDbArc
50
-90
51
0
0
ARC
5
191
100
AcDbEntity
8
0
100
AcDbCircle
10
-12.299999084810572
20
-3.2999998364861551
30
0
40
0.19999999999999962
100
AcDbArc
50
180
51
270
0
ARC
5
192
100
AcDbEntity
8
0
100
AcDbCircle
10
-13.699999052896274
20
-3.2999998364861551
30
0
40
0.20000000000000034
100
AcDbArc
50
-90
51
0
0
ARC
5
193
100
AcDbEntity
8
0
100
AcDbCircle
10
-15.299999084810572
20
-3.2999998364861551
30
0
40
0.20000000000000104
100
AcDbArc
50
180
51
270
0
ARC
5
194
100
AcDbEntity
8
0
100
AcDbCircle
10
-13.299999084810571
20
-3.2999998364861551
30
0
40
0.20000000000000104
100
AcDbArc
50
180
51
270
0
ARC
5
195
100
AcDbEntity
8
0
100
AcDbCircle
10
-11.299999084810572
20
-3.2999998364861551
30
0
40
0.19999999999999962
100
AcDbArc
50
180
51
270
0
ARC
5
196
100
AcDbEntity
8
0
100
AcDbCircle
10
-10.299999084810572
20
-3.2999998364861551
30
0
40
0.19999999999999962
100
AcDbArc
50
180
51
270
0
ARC
5
197
100
AcDbEntity
8
0
100
AcDbCircle
10
-9.6999990528962741
20
-3.2999998364861551
30
0
40
0.20000000000000034
100
AcDbArc
50
-90
51
0
0
ARC
5
198
100
AcDbEntity
8
0
100
AcDbCircle
10
-11.699999052896272
20
-3.2999998364861551
30
0
40
0.20000000000000034
100
AcDbArc
50
-90
51
0
0
LINE
5
199
100
AcDbEntity
8
0
100
AcDbLine
10
-11.299999084810572
20
-3.4999998364861558
30
0
11
-10.699999052896274
21
-3.4999998364861558
31
0
0
LINE
5
200
100
AcDbEntity
8
0
100
AcDbLine
10
-17.299999084810572
20
-3.4999998364861558
30
0
11
-16.699999052896274
21
-3.4999998364861558
31
0
0
LINE
5
201
100
AcDbEntity
8
0
100
AcDbLine
10
-9.4999990528962748
20
-3.2999998364861551
30
0
11
-9.4999990528962748
21
-3.7999999098890411
31
0
0
LINE
5
202
100
AcDbEntity
8
0
100
AcDbLine
10
-10.299999084810572
20
-3.4999998364861558
30
0
11
-9.6999990528962741
21
-3.4999998364861558
31
0
0
LINE
5
203
100
AcDbEntity
8
0
100
AcDbLine
10
-19.299999084810569
20
-3.4999998364861558
30
0
11
-18.699999052896274
21
-3.4999998364861558
31
0
0
ARC
5
204
100
AcDbEntity
8
0
100
AcDbCircle
10
-14.699999052896272
20
-3.2999998364861551
30
0
40
0.20000000000000034
100
AcDbArc
50
-90
51
0
0
LINE
5
205
100
AcDbEntity
8
0
100
AcDbLine
10
-12.299999084810572
20
-3.4999998364861558
30
0
11
-11.699999052896272
21
-3.4999998364861558
31
0
0
LINE
5
206
100
AcDbEntity
8
0
100
AcDbLine
10
-13.299999084810571
20
-3.4999998364861558
30
0
11
-12.699999052896274
21
-3.4999998364861558
31
0
0
ARC
5
207
100
AcDbEntity
8
0
100
AcDbCircle
10
-18.699999052896274
20
-3.2999998364861551
30
0
40
0.20000000000000034
100
AcDbArc
50
-90
51
0
0
ARC
5
208
100
AcDbEntity
8
0
100
AcDbCircle
10
-18.299999084810569
20
-3.2999998364861551
30
0
40
0.20000000000000104
100
AcDbArc
50
180
51
270
0
LINE
5
209
100
AcDbEntity
8
0
100
AcDbLine
10
-10.136134939657445
20
-3.274993142235771
30
0
11
-10.197658384666692
21
-3.274993142235771
31
0
0
LINE
5
210
100
AcDbEntity
8
0
100
AcDbLine
10
-18.299999084810569
20
-3.4999998364861558
30
0
11
-17.699999052896274
21
-3.4999998364861558
31
0
0
LINE
5
211
100
AcDbEntity
8
0
100
AcDbLine
10
-19.499999707139381
20
-3.7999999098890411
30
0
11
-19.499999084810572
21
-3.2999998364861551
31
0
0
ARC
5
212
100
AcDbEntity
8
0
100
AcDbCircle
10
-17.299999084810572
20
-3.2999998364861551
30
0
40
0.20000000000000104
100
AcDbArc
50
180
51
270
0
LINE
5
213
100
AcDbEntity
8
0
100
AcDbLine
10
-16.299999084810572
20
-3.4999998364861558
30
0
11
-15.699999052896272
21
-3.4999998364861558
31
0
0
LINE
5
214
100
AcDbEntity
8
0
100
AcDbLine
10
-15.299999084810572
20
-3.4999998364861558
30
0
11
-14.699999052896272
21
-3.4999998364861558
31
0
0
LINE
5
215
100
AcDbEntity
8
0
100
AcDbLine
10
-14.299999084810572
20
-3.4999998364861558
30
0
11
-13.699999052896274
21
-3.4999998364861558
31
0
0
ARC
5
216
100
AcDbEntity
8
0
100
AcDbCircle
10
-16.299999084810572
20
-3.2999998364861551
30
0
40
0.20000000000000104
100
AcDbArc
50
180
51
270
0
ARC
5
217
100
AcDbEntity
8
0
100
AcDbCircle
10
-17.699999052896274
20
-3.2999998364861551
30
0
40
0.20000000000000034
100
AcDbArc
50
-90
51
0
0
ARC
5
218
100
AcDbEntity
8
0
100
AcDbCircle
10
-19.299999084810569
20
-3.2999998364861551
30
0
40
0.20000000000000104
100
AcDbArc
50
180
51
270
0
ARC
5
219
100
AcDbEntity
8
0
100
AcDbCircle
10
-16.699999052896274
20
-3.2999998364861551
30
0
40
0.20000000000000034
100
AcDbArc
50
-90
51
0
0
LWPOLYLINE
5
220
100
AcDbEntity
8
0
100
AcDbPolyline
90
4
70
1
43
0.0
10
-9.1374989325605984
20
2.0000000478714468
10
-9.1374989325605984
20
1.000000047871447
10
-9.2624989325605966
20
1.000000047871447
10
-9.2624989325605966
20
2.0000000478714468
0
ENDSEC
0
SECTION
2
OBJECTS
0
DICTIONARY
5
C
100
AcDbDictionary
3
ACAD_GROUP
350
D
3
ACAD_MLINESTYLE
350
17
0
DICTIONARY
5
D
100
AcDbDictionary
0
DICTIONARY
5
1A
330
C
100
AcDbDictionary
0
DICTIONARY
5
17
100
AcDbDictionary
0
ENDSEC
0
EOF
