<?xml version="1.0" encoding="UTF-8"?>
<!DOCTYPE svg PUBLIC "-//W3C//DTD SVG 1.1//EN" "http://www.w3.org/Graphics/SVG/1.1/DTD/svg11.dtd">
<!-- Creator: CorelDRAW X8 -->
<svg xmlns="http://www.w3.org/2000/svg" xmlns:xlink="http://www.w3.org/1999/xlink" xml:space="preserve" width="20in" height="12in" version="1.1" style="shape-rendering:geometricPrecision; text-rendering:geometricPrecision; image-rendering:optimizeQuality; fill-rule:evenodd; clip-rule:evenodd" viewBox="0 0 20000 12000">
 <defs>
  
 </defs>
 <g id="Layer_x0020_1">
  
  <rect class="fil0 str0" x="1131" y="1057" width="500" height="500"/>
  <path class="fil1" d="M1688 402l31 8c-6,26 -18,46 -35,59 -17,14 -38,21 -63,21 -26,0 -47,-6 -63,-16 -16,-11 -28,-26 -37,-46 -8,-19 -12,-41 -12,-64 0,-24 4,-46 14,-65 9,-18 23,-32 40,-42 18,-9 37,-14 58,-14 24,0 44,6 60,18 17,12 28,29 34,51l-31 8c-5,-18 -13,-30 -24,-38 -10,-8 -23,-12 -39,-12 -19,0 -34,4 -46,13 -12,9 -21,21 -26,35 -5,15 -8,31 -8,46 0,21 3,38 9,53 6,16 15,27 28,34 12,8 26,12 40,12 18,0 33,-6 45,-16 12,-10 20,-25 25,-45z"/>
  <path id="1" class="fil1" d="M1868 486l0 -26c-14,19 -32,29 -55,29 -10,0 -20,-2 -28,-6 -9,-4 -16,-8 -20,-14 -4,-6 -7,-13 -9,-22 -1,-6 -2,-15 -2,-27l0 -107 29 0 0 95c0,16 1,26 2,31 2,8 6,14 12,18 6,5 13,7 22,7 9,0 17,-2 25,-7 7,-4 13,-10 16,-18 3,-8 5,-19 5,-34l0 -92 29 0 0 173 -26 0z"/>
  <path id="2" class="fil1" d="M2004 459l4 26c-8,2 -16,3 -22,3 -11,0 -19,-2 -25,-5 -6,-4 -10,-8 -12,-13 -3,-6 -4,-17 -4,-35l0 -100 -21 0 0 -22 21 0 0 -43 30 -18 0 61 29 0 0 22 -29 0 0 102c0,8 0,13 1,16 1,2 3,4 5,5 2,2 6,3 10,3 3,0 8,-1 13,-2z"/>
  <polygon id="3" class="fil1" points="2184,486 2184,275 2105,275 2105,247 2294,247 2294,275 2215,275 2215,486 "/>
  <path id="4" class="fil1" d="M2404 430l30 4c-4,17 -13,31 -26,41 -13,9 -29,14 -49,14 -26,0 -46,-8 -60,-23 -15,-16 -23,-37 -23,-65 0,-29 8,-52 23,-68 15,-16 34,-24 58,-24 23,0 42,8 56,23 15,16 22,38 22,67 0,2 0,4 0,8l-129 0c2,19 7,33 17,43 9,10 21,15 36,15 10,0 19,-3 27,-8 8,-6 14,-15 18,-27zm-96 -47l96 0c-1,-15 -5,-26 -11,-33 -9,-11 -21,-17 -36,-17 -13,0 -25,4 -34,13 -9,9 -14,21 -15,37z"/>
  <path id="5" class="fil1" d="M2460 434l29 -5c1,12 6,21 13,27 8,6 18,9 32,9 13,0 23,-2 30,-8 6,-5 9,-12 9,-19 0,-7 -2,-12 -8,-16 -4,-2 -14,-6 -30,-10 -22,-5 -37,-10 -45,-14 -8,-4 -14,-9 -19,-16 -4,-7 -6,-15 -6,-23 0,-8 2,-15 5,-22 4,-6 8,-12 14,-16 5,-3 11,-6 19,-9 8,-2 16,-3 25,-3 14,0 26,2 36,6 10,4 18,9 23,16 5,6 8,15 10,27l-29 4c-1,-9 -5,-16 -11,-22 -6,-5 -15,-7 -27,-7 -13,0 -23,2 -28,7 -6,4 -9,9 -9,15 0,4 1,7 4,10 2,4 6,6 11,8 3,1 11,4 26,8 20,5 35,10 43,13 8,4 15,9 19,16 5,6 7,15 7,25 0,9 -2,19 -8,27 -6,9 -14,15 -25,20 -11,5 -23,7 -36,7 -23,0 -40,-4 -52,-14 -11,-9 -19,-23 -22,-41z"/>
  <path id="6" class="fil1" d="M2702 459l4 26c-8,2 -16,3 -22,3 -11,0 -19,-2 -25,-5 -6,-4 -10,-8 -12,-13 -3,-6 -4,-17 -4,-35l0 -100 -22 0 0 -22 22 0 0 -43 29 -18 0 61 30 0 0 22 -30 0 0 102c0,8 1,13 2,16 1,2 3,4 5,5 2,2 6,3 10,3 3,0 8,-1 13,-2z"/>
  <rect class="fil0 str1" x="1131" y="1717" width="500" height="500"/>
  <rect class="fil0 str2" x="1131" y="2387" width="500" height="500"/>
  <path class="fil1" d="M1606 775l-15 0 0 -93c-3,3 -8,6 -13,10 -6,3 -11,6 -16,7l0 -14c8,-4 15,-8 22,-14 6,-5 10,-11 13,-16l9 0 0 120z"/>
  <path id="1" class="fil1" d="M1644 716c0,-14 1,-25 4,-34 3,-8 7,-15 13,-20 6,-4 13,-7 22,-7 6,0 12,2 16,4 5,3 9,6 12,11 4,5 6,11 8,18 2,7 2,16 2,28 0,14 -1,26 -4,34 -3,9 -7,15 -13,20 -5,5 -13,7 -21,7 -12,0 -21,-4 -27,-12 -8,-10 -12,-26 -12,-49zm15 0c0,20 2,33 7,39 4,7 10,10 17,10 6,0 12,-3 17,-10 4,-6 6,-19 6,-39 0,-19 -2,-32 -6,-39 -5,-6 -11,-10 -18,-10 -6,0 -12,3 -16,9 -5,7 -7,21 -7,40z"/>
  <path id="2" class="fil1" d="M1736 716c0,-14 2,-25 5,-34 3,-8 7,-15 13,-20 5,-4 13,-7 21,-7 7,0 12,2 17,4 5,3 9,6 12,11 3,5 6,11 7,18 2,7 3,16 3,28 0,14 -1,26 -4,34 -3,9 -7,15 -13,20 -6,5 -13,7 -22,7 -11,0 -20,-4 -27,-12 -8,-10 -12,-26 -12,-49zm15 0c0,20 3,33 7,39 5,7 11,10 17,10 7,0 13,-3 17,-10 5,-6 7,-19 7,-39 0,-19 -2,-32 -7,-39 -4,-6 -10,-10 -17,-10 -7,0 -12,3 -16,9 -5,7 -8,21 -8,40z"/>
  <path id="3" class="fil1" d="M1832 684c0,-8 2,-15 6,-21 5,-6 11,-9 19,-9 7,0 14,2 19,8 5,5 7,13 7,23 0,10 -2,18 -7,24 -5,5 -12,8 -19,8 -7,0 -13,-3 -18,-8 -5,-6 -7,-14 -7,-25zm25 -20c-3,0 -6,2 -9,5 -2,3 -3,9 -3,17 0,8 1,13 3,16 3,3 6,5 9,5 4,0 7,-2 10,-5 2,-3 3,-9 3,-17 0,-8 -1,-13 -3,-16 -3,-3 -6,-5 -10,-5zm0 115l66 -125 12 0 -65 125 -13 0zm52 -32c0,-8 2,-16 6,-22 5,-6 11,-9 19,-9 8,0 14,3 19,8 5,6 7,14 7,24 0,10 -2,18 -7,23 -5,6 -12,8 -19,8 -7,0 -13,-2 -18,-8 -5,-5 -7,-13 -7,-24zm25 -20c-3,0 -6,1 -9,4 -2,3 -3,9 -3,18 0,7 1,12 3,16 3,3 6,4 9,4 4,0 7,-1 10,-4 2,-4 3,-9 3,-18 0,-7 -1,-13 -3,-16 -3,-3 -6,-4 -10,-4z"/>
  <path id="4" class="fil1" d="M2030 775l0 -119 45 0c7,0 14,0 18,1 6,1 11,3 14,5 4,3 8,7 10,12 2,5 4,10 4,16 0,10 -4,19 -10,26 -6,7 -18,10 -35,10l-31 0 0 49 -15 0zm15 -63l31 0c10,0 18,-1 22,-5 4,-4 6,-9 6,-16 0,-5 -1,-10 -3,-13 -3,-4 -6,-6 -10,-7 -3,-1 -8,-1 -15,-1l-31 0 0 42z"/>
  <path id="5" class="fil1" d="M2133 732c0,-16 5,-28 14,-36 7,-6 16,-9 27,-9 12,0 21,4 29,11 8,8 11,19 11,33 0,11 -1,19 -5,26 -3,6 -8,11 -14,15 -7,3 -14,5 -21,5 -12,0 -22,-4 -29,-12 -8,-7 -12,-19 -12,-33zm15 0c0,11 3,19 8,25 4,5 11,8 18,8 7,0 13,-3 18,-8 5,-6 7,-14 7,-26 0,-10 -2,-18 -7,-24 -5,-5 -11,-8 -18,-8 -7,0 -14,3 -18,8 -5,6 -8,14 -8,25z"/>
  <path id="6" class="fil1" d="M2247 775l-26 -86 15 0 14 50 5 18c0,-1 2,-7 4,-18l14 -50 15 0 13 50 4 16 5 -16 15 -50 15 0 -28 86 -15 0 -13 -52 -4 -14 -17 66 -16 0z"/>
  <path id="7" class="fil1" d="M2411 747l15 2c-2,9 -7,16 -13,21 -7,5 -15,7 -25,7 -12,0 -22,-4 -30,-12 -7,-7 -11,-18 -11,-32 0,-15 4,-26 11,-34 8,-8 17,-12 29,-12 12,0 21,4 29,12 7,7 11,18 11,33 0,1 0,2 -1,4l-64 0c1,9 3,16 8,21 5,5 11,8 18,8 6,0 10,-1 14,-4 4,-3 7,-8 9,-14zm-48 -23l48 0c-1,-8 -2,-13 -5,-17 -5,-5 -11,-8 -19,-8 -6,0 -12,2 -17,7 -4,4 -7,10 -7,18z"/>
  <path id="8" class="fil1" d="M2444 775l0 -86 14 0 0 13c3,-6 6,-10 9,-12 3,-2 6,-3 9,-3 5,0 10,1 15,4l-5 14c-3,-2 -7,-3 -10,-3 -4,0 -7,1 -9,3 -3,2 -4,4 -5,8 -2,5 -3,11 -3,17l0 45 -15 0z"/>
  <path class="fil1" d="M1875 1366l-15 0 0 -94c-4,4 -8,7 -14,10 -6,4 -11,6 -15,8l0 -14c8,-4 15,-9 21,-14 6,-6 11,-11 13,-16l10 0 0 120z"/>
  <path id="1" class="fil1" d="M1915 1338l14 -1c1,7 3,11 6,14 4,3 8,5 13,5 5,0 9,-1 12,-3 4,-2 6,-5 8,-9 3,-3 4,-8 6,-14 1,-5 2,-11 2,-18 0,0 0,-1 0,-2 -3,4 -7,8 -12,11 -5,3 -11,4 -16,4 -10,0 -19,-3 -25,-10 -7,-8 -11,-17 -11,-29 0,-12 4,-22 11,-29 7,-7 16,-11 27,-11 8,0 15,2 21,6 6,4 11,10 15,18 3,8 5,19 5,34 0,15 -2,27 -5,36 -4,9 -9,16 -15,21 -7,4 -14,7 -23,7 -9,0 -17,-3 -23,-8 -6,-5 -9,-13 -10,-22zm59 -53c0,-8 -2,-15 -6,-20 -5,-4 -10,-7 -16,-7 -7,0 -13,3 -17,8 -5,5 -8,12 -8,21 0,7 3,13 7,18 5,5 10,7 17,7 7,0 12,-2 17,-7 4,-5 6,-11 6,-20z"/>
  <path id="2" class="fil1" d="M2005 1307c0,-14 1,-26 4,-34 3,-9 8,-15 13,-20 6,-5 13,-7 22,-7 6,0 12,1 17,4 5,2 9,6 12,11 3,5 5,11 7,18 2,7 3,16 3,28 0,14 -2,25 -5,34 -2,8 -7,15 -12,20 -6,4 -13,7 -22,7 -12,0 -21,-4 -27,-13 -8,-10 -12,-26 -12,-48zm15 0c0,20 2,33 7,39 4,7 10,10 17,10 7,0 12,-3 17,-10 4,-6 7,-19 7,-39 0,-20 -3,-33 -7,-39 -5,-7 -10,-10 -17,-10 -7,0 -12,3 -16,9 -5,7 -8,20 -8,40z"/>
  <path class="fil1" d="M1875 2696l-15 0 0 -94c-4,4 -8,7 -14,10 -6,4 -11,6 -15,8l0 -14c8,-4 15,-9 21,-14 6,-6 11,-11 13,-16l10 0 0 120z"/>
  <path id="1" class="fil1" d="M1912 2664l16 -1c1,8 3,13 8,17 4,4 9,6 15,6 7,0 13,-3 18,-8 4,-6 7,-13 7,-21 0,-9 -2,-15 -7,-20 -5,-5 -11,-7 -19,-7 -4,0 -9,1 -12,3 -4,2 -7,5 -9,8l-14 -2 12 -61 59 0 0 14 -48 0 -6 32c7,-5 14,-7 22,-7 11,0 19,3 27,10 7,8 10,17 10,28 0,11 -3,20 -9,28 -8,10 -18,15 -31,15 -11,0 -20,-3 -27,-9 -7,-6 -11,-15 -12,-25z"/>
  <path id="2" class="fil1" d="M2005 2637c0,-14 1,-26 4,-34 3,-9 8,-15 13,-20 6,-5 13,-7 22,-7 6,0 12,1 17,4 5,2 9,6 12,11 3,5 5,11 7,18 2,7 3,16 3,28 0,14 -2,25 -5,34 -2,8 -7,15 -12,20 -6,4 -13,7 -22,7 -12,0 -21,-4 -27,-13 -8,-10 -12,-26 -12,-48zm15 0c0,20 2,33 7,39 4,7 10,10 17,10 7,0 12,-3 17,-10 4,-6 7,-19 7,-39 0,-20 -3,-33 -7,-39 -5,-7 -10,-10 -17,-10 -7,0 -12,3 -16,9 -5,7 -8,20 -8,40z"/>
  <path class="fil1" d="M1874 3344l-15 0 0 -93c-3,3 -8,6 -14,10 -5,3 -10,6 -15,7l0 -14c8,-4 15,-8 21,-14 7,-5 11,-11 14,-16l9 0 0 120z"/>
  <path id="1" class="fil1" d="M1989 3330l0 14 -79 0c-1,-3 0,-7 1,-10 2,-5 6,-11 10,-16 4,-5 11,-11 19,-18 13,-11 22,-19 26,-25 5,-6 7,-12 7,-18 0,-6 -2,-11 -6,-15 -4,-4 -10,-6 -16,-6 -7,0 -13,3 -17,7 -4,4 -7,10 -7,17l-15 -1c1,-11 5,-20 12,-26 7,-6 16,-9 27,-9 12,0 21,3 27,10 7,6 10,14 10,23 0,5 -1,10 -3,14 -2,5 -5,10 -9,15 -5,5 -12,12 -23,21 -9,7 -14,12 -17,15 -2,3 -4,5 -6,8l59 0z"/>
  <path id="2" class="fil1" d="M2004 3313l16 -1c1,7 3,13 8,16 4,4 9,6 15,6 7,0 13,-3 18,-8 4,-5 7,-12 7,-21 0,-8 -2,-15 -7,-20 -5,-5 -11,-7 -18,-7 -5,0 -9,1 -13,3 -4,2 -7,5 -9,9l-14 -2 12 -62 59 0 0 14 -48 0 -6 32c7,-5 15,-7 22,-7 11,0 20,4 27,11 7,7 10,16 10,28 0,10 -3,20 -9,28 -8,9 -18,14 -31,14 -11,0 -20,-3 -27,-9 -7,-6 -11,-14 -12,-24z"/>
  <path class="fil1" d="M1875 4004l-15 0 0 -93c-4,3 -8,6 -14,10 -6,3 -11,6 -15,7l0 -14c8,-4 15,-8 21,-14 6,-5 11,-11 13,-16l10 0 0 120z"/>
  <path id="1" class="fil1" d="M1912 3945c0,-14 2,-25 5,-34 3,-9 7,-15 13,-20 5,-4 13,-7 21,-7 7,0 12,2 17,4 5,3 9,6 12,11 3,5 6,11 7,18 2,7 3,16 3,28 0,14 -1,26 -4,34 -3,9 -7,15 -13,20 -6,5 -13,7 -22,7 -11,0 -20,-4 -27,-12 -8,-10 -12,-26 -12,-49zm15 0c0,20 3,33 7,39 5,7 10,10 17,10 7,0 13,-3 17,-10 5,-6 7,-19 7,-39 0,-19 -2,-32 -7,-39 -4,-6 -10,-10 -17,-10 -7,0 -12,3 -16,9 -5,7 -8,21 -8,40z"/>
  <path id="2" class="fil1" d="M2005 3945c0,-14 1,-25 4,-34 3,-9 8,-15 13,-20 6,-4 13,-7 22,-7 6,0 12,2 17,4 5,3 9,6 12,11 3,5 5,11 7,18 2,7 3,16 3,28 0,14 -2,26 -5,34 -2,9 -7,15 -12,20 -6,5 -13,7 -22,7 -12,0 -21,-4 -27,-12 -8,-10 -12,-26 -12,-49zm15 0c0,20 2,33 7,39 4,7 10,10 17,10 7,0 12,-3 17,-10 4,-6 7,-19 7,-39 0,-19 -3,-32 -7,-39 -5,-6 -10,-10 -17,-10 -7,0 -12,3 -16,9 -5,7 -8,21 -8,40z"/>
  <path class="fil1" d="M1874 4631l14 -1c1,6 3,11 6,14 4,3 8,5 13,5 5,0 9,-1 12,-3 4,-3 6,-5 9,-9 2,-3 4,-8 5,-14 2,-6 2,-12 2,-18 0,0 0,-1 0,-3 -3,5 -7,9 -12,12 -5,3 -10,4 -16,4 -10,0 -18,-3 -25,-11 -7,-7 -11,-16 -11,-28 0,-12 4,-22 11,-29 7,-7 16,-11 27,-11 8,0 15,2 21,6 7,4 11,10 15,18 3,8 5,19 5,34 0,15 -2,27 -5,36 -3,9 -8,16 -15,21 -6,4 -14,7 -23,7 -9,0 -17,-3 -23,-8 -6,-5 -9,-13 -10,-22zm59 -53c0,-8 -2,-15 -6,-20 -5,-5 -10,-7 -16,-7 -7,0 -13,3 -17,8 -5,5 -8,12 -8,21 0,7 3,13 7,18 5,5 11,7 17,7 7,0 13,-2 17,-7 4,-5 6,-11 6,-20z"/>
  <path id="1" class="fil1" d="M1964 4600c0,-14 2,-26 5,-34 2,-9 7,-16 12,-20 6,-5 13,-7 22,-7 6,0 12,1 17,4 5,2 9,6 12,11 3,5 5,11 7,18 2,7 3,16 3,28 0,14 -2,25 -4,34 -3,8 -8,15 -13,20 -6,4 -13,7 -22,7 -11,0 -20,-4 -27,-13 -8,-10 -12,-26 -12,-48zm15 0c0,19 2,33 7,39 5,6 10,10 17,10 7,0 12,-4 17,-10 5,-7 7,-20 7,-39 0,-20 -2,-33 -7,-39 -5,-7 -10,-10 -17,-10 -7,0 -12,3 -16,9 -5,7 -8,20 -8,40z"/>
  <path class="fil1" d="M1894 5252c-6,-2 -10,-6 -13,-10 -3,-4 -5,-9 -5,-14 0,-9 3,-16 10,-22 6,-6 14,-9 24,-9 11,0 19,3 26,9 6,6 9,13 9,22 0,5 -1,10 -4,14 -3,4 -8,8 -13,10 7,2 12,6 16,11 4,6 6,12 6,19 0,11 -4,19 -11,26 -7,7 -17,11 -28,11 -12,0 -22,-4 -29,-11 -7,-7 -11,-16 -11,-26 0,-8 2,-14 6,-19 4,-6 10,-9 17,-11zm-3 -25c0,6 2,10 6,14 3,3 8,5 14,5 6,0 10,-2 14,-5 3,-4 5,-8 5,-13 0,-6 -2,-10 -5,-14 -4,-3 -9,-5 -14,-5 -6,0 -11,2 -14,5 -4,4 -6,8 -6,13zm-5 55c0,4 1,8 3,12 2,4 5,7 9,9 4,2 8,4 13,4 7,0 13,-3 17,-7 5,-5 7,-10 7,-17 0,-7 -2,-13 -7,-18 -5,-4 -11,-7 -18,-7 -7,0 -12,3 -17,7 -4,5 -7,10 -7,17z"/>
  <path id="1" class="fil1" d="M1964 5258c0,-14 2,-26 5,-34 3,-9 7,-16 13,-20 5,-5 12,-7 21,-7 6,0 12,1 17,4 5,2 9,6 12,11 3,5 5,11 7,17 2,7 3,17 3,29 0,14 -2,25 -4,34 -3,8 -8,15 -13,20 -6,4 -13,7 -22,7 -11,0 -20,-5 -27,-13 -8,-10 -12,-26 -12,-48zm15 0c0,19 3,32 7,39 5,6 10,10 17,10 7,0 12,-4 17,-10 5,-7 7,-20 7,-39 0,-20 -2,-33 -7,-39 -4,-7 -10,-10 -17,-10 -7,0 -12,3 -16,8 -5,8 -8,21 -8,41z"/>
  <path class="fil1" d="M1872 5869l0 -14 77 0 0 12c-8,8 -15,19 -23,32 -7,13 -13,27 -17,41 -3,10 -5,21 -5,33l-15 0c0,-9 2,-21 5,-34 4,-13 9,-26 15,-38 7,-13 14,-23 21,-32l-58 0z"/>
  <path id="1" class="fil1" d="M1964 5914c0,-14 1,-25 4,-34 3,-8 7,-15 13,-20 6,-4 13,-7 22,-7 6,0 12,2 16,4 5,3 9,7 12,11 4,5 6,11 8,18 2,7 2,17 2,28 0,14 -1,26 -4,34 -3,9 -7,16 -13,20 -5,5 -13,7 -21,7 -12,0 -21,-4 -27,-12 -8,-10 -12,-26 -12,-49zm15 0c0,20 2,33 7,40 4,6 10,9 17,9 6,0 12,-3 17,-9 4,-7 6,-20 6,-40 0,-19 -2,-32 -6,-39 -5,-6 -11,-9 -18,-9 -6,0 -12,2 -16,8 -5,7 -7,21 -7,40z"/>
  <path class="fil1" d="M3290 1276l-14 1c-1,-6 -3,-10 -6,-13 -4,-4 -9,-6 -14,-6 -5,0 -9,1 -13,4 -5,3 -8,8 -11,15 -2,6 -4,15 -4,27 4,-5 8,-9 13,-12 5,-2 10,-4 16,-4 10,0 18,4 25,11 7,7 10,17 10,28 0,7 -1,14 -4,21 -4,6 -8,11 -14,15 -5,3 -12,5 -19,5 -12,0 -22,-5 -30,-14 -8,-9 -11,-23 -11,-44 0,-23 4,-40 12,-50 8,-10 18,-14 30,-14 10,0 18,3 24,8 6,5 9,12 10,22zm-60 51c0,5 1,10 4,15 2,4 5,8 9,10 3,3 7,4 12,4 6,0 11,-3 16,-8 4,-5 6,-12 6,-20 0,-8 -2,-15 -6,-20 -5,-4 -10,-7 -17,-7 -6,0 -12,3 -17,7 -4,5 -7,11 -7,19z"/>
  <path id="1" class="fil1" d="M3307 1307c0,-14 1,-26 4,-34 3,-9 7,-15 13,-20 6,-5 13,-7 22,-7 6,0 12,1 17,4 4,2 8,6 12,11 3,5 5,11 7,18 2,7 3,16 3,28 0,14 -2,25 -5,34 -3,8 -7,15 -13,20 -5,4 -13,7 -21,7 -12,0 -21,-4 -27,-13 -8,-10 -12,-26 -12,-48zm15 0c0,20 2,33 7,39 4,7 10,10 17,10 6,0 12,-3 17,-10 4,-6 7,-19 7,-39 0,-20 -3,-33 -7,-39 -5,-7 -11,-10 -17,-10 -7,0 -13,3 -17,9 -5,7 -7,20 -7,40z"/>
  <path class="fil1" d="M3214 1994l15 -1c1,8 4,13 8,17 4,4 9,6 15,6 7,0 13,-3 18,-8 5,-6 7,-13 7,-21 0,-9 -2,-15 -7,-20 -4,-5 -10,-7 -18,-7 -5,0 -9,1 -13,3 -4,2 -6,5 -9,8l-13 -2 11 -61 59 0 0 14 -47 0 -7 32c7,-5 15,-7 23,-7 10,0 19,3 26,10 7,8 11,17 11,28 0,11 -3,20 -10,28 -7,10 -18,15 -31,15 -11,0 -20,-3 -26,-9 -7,-6 -11,-15 -12,-25z"/>
  <path id="1" class="fil1" d="M3307 1967c0,-14 1,-26 4,-34 3,-9 7,-15 13,-20 6,-5 13,-7 21,-7 7,0 12,1 17,4 5,2 9,6 12,11 3,5 6,11 8,18 1,7 2,16 2,28 0,14 -1,25 -4,34 -3,8 -7,15 -13,20 -6,4 -13,7 -22,7 -11,0 -20,-4 -27,-13 -8,-10 -11,-26 -11,-48zm15 0c0,20 2,33 6,39 5,7 11,10 17,10 7,0 13,-3 17,-10 5,-6 7,-19 7,-39 0,-20 -2,-33 -7,-39 -4,-7 -10,-10 -17,-10 -7,0 -12,3 -16,9 -5,7 -7,20 -7,40z"/>
  <path class="fil1" d="M3263 2696l0 -29 -52 0 0 -13 55 -78 12 0 0 78 16 0 0 13 -16 0 0 29 -15 0zm0 -42l0 -54 -37 54 37 0z"/>
  <path id="1" class="fil1" d="M3309 2637c0,-14 1,-26 4,-34 3,-9 8,-15 13,-20 6,-5 13,-7 22,-7 6,0 12,1 17,4 5,2 9,6 12,11 3,5 5,11 7,18 2,7 3,16 3,28 0,14 -2,25 -5,34 -2,8 -7,15 -12,20 -6,4 -13,7 -22,7 -12,0 -21,-4 -27,-13 -8,-10 -12,-26 -12,-48zm15 0c0,20 2,33 7,39 4,7 10,10 17,10 7,0 12,-3 17,-10 4,-6 7,-19 7,-39 0,-20 -3,-33 -7,-39 -5,-7 -10,-10 -17,-10 -7,0 -12,3 -16,9 -5,7 -8,20 -8,40z"/>
  <path class="fil1" d="M3214 3312l15 -2c1,9 4,15 8,18 4,4 9,6 15,6 7,0 13,-2 17,-7 5,-5 8,-11 8,-18 0,-7 -3,-12 -7,-17 -4,-4 -10,-6 -17,-6 -3,0 -6,0 -10,1l1 -12c1,0 2,0 3,0 6,0 12,-2 17,-5 5,-3 7,-8 7,-15 0,-6 -2,-10 -5,-13 -4,-4 -9,-6 -14,-6 -6,0 -11,2 -15,6 -3,3 -6,9 -7,16l-15 -3c2,-10 6,-17 13,-23 6,-5 14,-8 23,-8 7,0 13,2 18,4 6,3 10,7 13,12 3,5 4,10 4,15 0,5 -1,10 -4,14 -3,4 -7,8 -12,10 7,2 12,5 16,10 4,6 6,12 6,20 0,10 -4,19 -11,26 -8,7 -18,11 -29,11 -11,0 -19,-3 -26,-9 -7,-7 -11,-15 -12,-25z"/>
  <path id="1" class="fil1" d="M3307 3285c0,-14 1,-25 4,-34 3,-9 7,-15 13,-20 6,-4 13,-7 21,-7 7,0 12,2 17,4 5,3 9,6 12,11 3,5 6,11 8,18 1,7 2,16 2,28 0,14 -1,26 -4,34 -3,9 -7,15 -13,20 -6,5 -13,7 -22,7 -11,0 -20,-4 -27,-12 -8,-10 -11,-26 -11,-49zm15 0c0,20 2,33 6,39 5,7 11,10 17,10 7,0 13,-3 17,-10 5,-6 7,-19 7,-39 0,-19 -2,-32 -7,-39 -4,-6 -10,-10 -17,-10 -7,0 -12,3 -16,9 -5,7 -7,21 -7,40z"/>
  <path class="fil1" d="M3292 3990l0 14 -79 0c0,-3 0,-7 2,-10 2,-5 5,-11 9,-16 5,-5 11,-11 19,-18 13,-11 22,-19 27,-25 4,-6 7,-12 7,-18 0,-6 -2,-11 -7,-15 -4,-4 -9,-6 -16,-6 -7,0 -13,3 -17,7 -4,4 -6,10 -6,17l-15 -1c1,-11 5,-20 11,-26 7,-6 16,-9 27,-9 12,0 21,3 28,10 6,6 10,14 10,23 0,5 -1,10 -3,14 -2,5 -5,10 -10,15 -5,5 -12,12 -23,21 -8,7 -14,12 -17,15 -2,3 -4,5 -6,8l59 0z"/>
  <path id="1" class="fil1" d="M3308 3945c0,-14 1,-25 4,-34 3,-9 7,-15 13,-20 6,-4 13,-7 22,-7 6,0 12,2 16,4 5,3 9,6 12,11 3,5 6,11 8,18 1,7 2,16 2,28 0,14 -1,26 -4,34 -3,9 -7,15 -13,20 -6,5 -13,7 -21,7 -12,0 -21,-4 -28,-12 -7,-10 -11,-26 -11,-49zm15 0c0,20 2,33 7,39 4,7 10,10 17,10 6,0 12,-3 16,-10 5,-6 7,-19 7,-39 0,-19 -2,-32 -7,-39 -4,-6 -10,-10 -17,-10 -6,0 -12,3 -16,9 -5,7 -7,21 -7,40z"/>
  <path class="fil1" d="M3263 4659l-15 0 0 -94c-4,4 -8,7 -14,10 -6,4 -11,6 -15,8l0 -14c8,-4 15,-9 21,-14 6,-6 11,-11 13,-16l10 0 0 120z"/>
  <path id="1" class="fil1" d="M3300 4627l16 -1c1,8 3,13 8,17 4,4 9,6 15,6 7,0 13,-3 18,-8 4,-6 7,-13 7,-21 0,-9 -2,-15 -7,-20 -5,-5 -11,-8 -18,-8 -5,0 -9,2 -13,4 -4,2 -7,5 -9,8l-14 -2 12 -61 59 0 0 14 -48 0 -6 32c7,-5 15,-8 22,-8 11,0 20,4 27,11 7,8 10,17 10,28 0,11 -3,20 -9,28 -8,10 -18,15 -31,15 -11,0 -20,-3 -27,-9 -7,-7 -11,-15 -12,-25z"/>
  <path class="fil1" d="M3263 5317l-14 0 0 -94c-4,4 -8,7 -14,10 -6,4 -11,6 -16,8l0 -14c9,-4 16,-9 22,-14 6,-6 10,-11 13,-16l9 0 0 120z"/>
  <path id="1" class="fil1" d="M3301 5258c0,-14 1,-26 4,-34 3,-9 8,-16 13,-20 6,-5 13,-7 22,-7 6,0 12,1 17,4 5,2 9,6 12,11 3,5 5,11 7,17 2,7 3,17 3,29 0,14 -2,25 -5,34 -2,8 -7,15 -12,20 -6,4 -13,7 -22,7 -12,0 -21,-5 -27,-13 -8,-10 -12,-26 -12,-48zm15 0c0,19 2,32 7,39 4,6 10,10 17,10 7,0 12,-4 17,-10 4,-7 7,-20 7,-39 0,-20 -3,-33 -7,-39 -5,-7 -10,-10 -17,-10 -7,0 -12,3 -16,8 -5,8 -8,21 -8,41z"/>
  <path class="fil1" d="M3260 5941l15 -1c1,7 4,13 8,17 4,3 9,5 15,5 7,0 13,-2 18,-8 5,-5 7,-12 7,-21 0,-8 -2,-15 -7,-20 -5,-5 -11,-7 -18,-7 -5,0 -9,1 -13,3 -4,2 -7,5 -9,9l-14 -2 12 -62 59 0 0 14 -48 0 -6 33c7,-5 15,-8 22,-8 11,0 20,4 27,11 7,7 11,16 11,28 0,11 -4,20 -10,28 -8,9 -18,14 -31,14 -11,0 -20,-3 -27,-9 -7,-6 -11,-14 -11,-24z"/>
  <path class="fil1" d="M1874 2026l-15 0 0 -94c-3,4 -8,7 -14,10 -5,4 -10,6 -15,8l0 -14c8,-4 15,-9 21,-14 7,-6 11,-11 14,-16l9 0 0 120z"/>
  <path id="1" class="fil1" d="M1913 1922l0 -14 77 0 0 11c-8,8 -15,19 -23,33 -7,13 -13,27 -17,41 -3,10 -5,21 -6,33l-15 0c0,-10 2,-21 6,-34 3,-14 8,-26 15,-39 6,-12 13,-23 21,-31l-58 0z"/>
  <path id="2" class="fil1" d="M2004 1994l16 -1c1,8 3,13 8,17 4,4 9,6 15,6 7,0 13,-3 18,-8 4,-6 7,-13 7,-21 0,-9 -2,-15 -7,-20 -5,-5 -11,-7 -18,-7 -5,0 -9,1 -13,3 -4,2 -7,5 -9,8l-14 -2 12 -61 59 0 0 14 -48 0 -6 32c7,-5 15,-7 22,-7 11,0 20,3 27,10 7,8 10,17 10,28 0,11 -3,20 -9,28 -8,10 -18,15 -31,15 -11,0 -20,-3 -27,-9 -7,-6 -11,-15 -12,-25z"/>
  <rect class="fil0 str3" x="1131" y="4350" width="500" height="500"/>
  <rect class="fil0 str4" x="1131" y="3035" width="500" height="500"/>
  <rect class="fil0 str5" x="1131" y="3695" width="500" height="500"/>
  <rect class="fil0 str6" x="1131" y="5008" width="500" height="500"/>
  <rect class="fil0 str7" x="1131" y="5664" width="500" height="500"/>
  <rect class="fil0 str8" x="2451" y="1057" width="500" height="500"/>
  <rect class="fil0 str9" x="2451" y="1717" width="500" height="500"/>
  <rect class="fil0 str10" x="2451" y="2387" width="500" height="500"/>
  <rect class="fil0 str11" x="2451" y="4350" width="500" height="500"/>
  <rect class="fil0 str12" x="2451" y="3035" width="500" height="500"/>
  <rect class="fil0 str13" x="2451" y="3695" width="500" height="500"/>
  <rect class="fil0 str14" x="2451" y="5008" width="500" height="500"/>
  <rect class="fil0 str15" x="2451" y="5664" width="500" height="500"/>
  <rect class="fil0 str16" x="615" y="123" width="3146" height="6344"/>
 </g>
</svg>
